# 3ds Max Wavefront OBJ Exporter v0.97b - (c)2007 guruware
# File Created: 22.10.2017 23:10:35

mtllib potion1.mtl

#
# object potion
#

v  -4.3890 -8.0660 5.0925
v  -4.3890 -8.0660 -5.0925
v  4.3890 -8.0660 -5.0925
v  4.3890 -8.0660 5.0925
v  4.3890 -7.8080 5.0925
v  -4.3890 -7.8080 5.0925
v  4.3890 -7.8080 -5.0925
v  -4.3890 -7.8080 -5.0925
v  3.7749 -7.8080 4.4785
v  -3.7749 -7.8080 4.4785
v  3.7749 -7.8080 -4.4785
v  -3.7749 -7.8080 -4.4785
v  3.7749 -1.4099 4.4785
v  -3.7749 -1.4099 4.4785
v  3.7749 -1.4099 -4.4785
v  -3.7749 -1.4099 -4.4785
v  3.1608 -1.4099 3.8644
v  -3.1608 -1.4099 3.8644
v  3.1608 -1.4099 -3.8644
v  -3.1608 -1.4099 -3.8644
v  3.1608 -0.5433 3.8644
v  -3.1608 -0.5433 3.8644
v  3.1608 -0.5433 -3.8644
v  -3.1608 -0.5433 -3.8644
v  1.1462 -0.5433 1.8498
v  -1.1462 -0.5433 1.8498
v  1.1462 -0.5433 -1.8498
v  -1.1462 -0.5433 -1.8498
v  1.1462 2.6994 1.8498
v  1.1462 3.2698 1.8498
v  -1.1462 3.2698 1.8498
v  -1.1462 2.6994 1.8498
v  1.1462 2.6994 -1.8498
v  1.1462 3.2698 -1.8498
v  -1.1462 2.6994 -1.8498
v  -1.1462 3.2698 -1.8498
v  1.1462 3.8402 1.8498
v  1.1462 6.5361 1.8498
v  -1.1462 6.5361 1.8498
v  -1.1462 3.8402 1.8498
v  1.2142 3.2698 1.9178
v  1.2142 3.8402 1.9178
v  -1.2142 3.8402 1.9178
v  -1.2142 3.2698 1.9178
v  -1.1462 2.1290 1.8498
v  1.1462 2.1290 1.8498
v  -1.2142 2.6994 1.9178
v  -1.2142 2.1290 1.9178
v  1.2142 2.1290 1.9178
v  1.2142 2.6994 1.9178
v  1.1462 3.8402 -1.8498
v  1.1462 6.5361 -1.8498
v  1.2142 3.2698 -1.9178
v  1.2142 3.8402 -1.9178
v  1.1462 2.1290 -1.8498
v  1.2142 2.1290 -1.9178
v  1.2142 2.6994 -1.9178
v  -1.1462 3.8402 -1.8498
v  -1.1462 6.5361 -1.8498
v  -1.2142 3.2698 -1.9178
v  -1.2142 3.8402 -1.9178
v  -1.1462 2.1290 -1.8498
v  -1.2142 2.1290 -1.9178
v  -1.2142 2.6994 -1.9178
v  1.4868 6.5361 2.1904
v  1.4868 7.2312 2.1904
v  -1.4868 7.2312 2.1904
v  -1.4868 6.5361 2.1904
v  1.4868 6.5361 -2.1904
v  1.4868 7.2312 -2.1904
v  -1.4868 6.5361 -2.1904
v  -1.4868 7.2312 -2.1904
v  1.1462 7.2312 1.8498
v  -1.1462 7.2312 1.8498
v  -1.1462 7.2312 -1.8498
v  1.1462 7.2312 -1.8498
v  0.8332 8.0660 1.5368
v  0.8332 8.0660 -1.5368
v  -0.8332 8.0660 -1.5368
v  -0.8332 8.0660 1.5368
v  1.1462 6.9413 1.8498
v  -1.1462 6.9413 1.8498
v  1.1462 6.9413 -1.8498
v  -1.1462 6.9413 -1.8498
v  1.0612 6.9413 1.7648
v  -1.0612 6.9413 1.7648
v  1.0612 6.9413 -1.7648
v  -1.0612 6.9413 -1.7648
# 88 vertices

vn 0.0000 -1.0000 -0.0000
vn 0.0000 0.0000 1.0000
vn 1.0000 0.0000 -0.0000
vn 0.0000 0.0000 -1.0000
vn -1.0000 0.0000 -0.0000
vn 0.0000 1.0000 -0.0000
vn 0.0000 0.1987 0.9801
vn 0.9801 0.1987 -0.0000
vn 0.0000 0.1987 -0.9801
vn -0.9801 0.1987 -0.0000
# 10 vertex normals

vt 1.0000 0.0000 0.0000
vt 1.0000 1.0000 0.0000
vt 0.0000 1.0000 0.0000
vt 0.0000 0.0000 0.0000
# 4 texture coords

g potion
usemtl 01___Default
s 2
f 1/1/1 2/2/1 3/3/1 4/4/1 
s 8
f 1/4/2 4/1/2 5/2/2 6/3/2 
s 16
f 4/4/3 3/1/3 7/2/3 5/3/3 
s 32
f 3/4/4 2/1/4 8/2/4 7/3/4 
s 64
f 2/4/5 1/1/5 6/2/5 8/3/5 
s off
f 6/4/6 5/1/6 9/1/6 10/4/6 
f 5/1/6 7/2/6 11/2/6 9/1/6 
f 7/2/6 8/3/6 12/3/6 11/2/6 
f 8/3/6 6/4/6 10/4/6 12/3/6 
f 10/4/2 9/1/2 13/1/2 14/4/2 
f 9/1/3 11/2/3 15/2/3 13/1/3 
f 11/2/4 12/3/4 16/3/4 15/2/4 
f 12/3/5 10/4/5 14/4/5 16/3/5 
f 14/4/6 13/1/6 17/1/6 18/4/6 
f 13/1/6 15/2/6 19/2/6 17/1/6 
f 15/2/6 16/3/6 20/3/6 19/2/6 
f 16/3/6 14/4/6 18/4/6 20/3/6 
f 18/4/2 17/1/2 21/1/2 22/4/2 
f 17/1/3 19/2/3 23/2/3 21/1/3 
f 19/2/4 20/3/4 24/3/4 23/2/4 
f 20/3/5 18/4/5 22/4/5 24/3/5 
f 22/4/6 21/1/6 25/1/6 26/4/6 
f 21/1/6 23/2/6 27/2/6 25/1/6 
f 23/2/6 24/3/6 28/3/6 27/2/6 
f 24/3/6 22/4/6 26/4/6 28/3/6 
f 29/1/2 30/1/2 31/4/2 32/4/2 
f 33/2/3 34/2/3 30/1/3 29/1/3 
f 35/3/4 36/3/4 34/2/4 33/2/4 
f 32/4/5 31/4/5 36/3/5 35/3/5 
f 37/1/2 38/1/2 39/4/2 40/4/2 
f 41/1/2 42/1/2 43/4/2 44/4/2 
f 45/4/2 26/4/2 25/1/2 46/1/2 
f 47/4/2 48/4/2 49/1/2 50/1/2 
f 51/2/3 52/2/3 38/1/3 37/1/3 
f 53/2/3 54/2/3 42/1/3 41/1/3 
f 46/1/3 25/1/3 27/2/3 55/2/3 
f 50/1/3 49/1/3 56/2/3 57/2/3 
f 58/3/4 59/3/4 52/2/4 51/2/4 
f 60/3/4 61/3/4 54/2/4 53/2/4 
f 55/2/4 27/2/4 28/3/4 62/3/4 
f 57/2/4 56/2/4 63/3/4 64/3/4 
f 40/4/5 39/4/5 59/3/5 58/3/5 
f 44/4/5 43/4/5 61/3/5 60/3/5 
f 62/3/5 28/3/5 26/4/5 45/4/5 
f 64/3/5 63/3/5 48/4/5 47/4/5 
f 65/1/2 66/1/2 67/4/2 68/4/2 
f 69/2/3 70/2/3 66/1/3 65/1/3 
f 71/3/4 72/3/4 70/2/4 69/2/4 
f 68/4/5 67/4/5 72/3/5 71/3/5 
f 73/1/6 74/4/6 67/4/6 66/1/6 
f 74/4/6 75/3/6 72/3/6 67/4/6 
f 75/3/6 76/2/6 70/2/6 72/3/6 
f 76/2/6 73/1/6 66/1/6 70/2/6 
f 39/4/1 38/1/1 65/1/1 68/4/1 
f 38/1/1 52/2/1 69/2/1 65/1/1 
f 52/2/1 59/3/1 71/3/1 69/2/1 
f 59/3/1 39/4/1 68/4/1 71/3/1 
f 37/1/6 40/4/6 43/4/6 42/1/6 
f 40/4/6 58/3/6 61/3/6 43/4/6 
f 58/3/6 51/2/6 54/2/6 61/3/6 
f 51/2/6 37/1/6 42/1/6 54/2/6 
f 31/4/1 30/1/1 41/1/1 44/4/1 
f 30/1/1 34/2/1 53/2/1 41/1/1 
f 34/2/1 36/3/1 60/3/1 53/2/1 
f 36/3/1 31/4/1 44/4/1 60/3/1 
f 45/4/1 46/1/1 49/1/1 48/4/1 
f 46/1/1 55/2/1 56/2/1 49/1/1 
f 55/2/1 62/3/1 63/3/1 56/2/1 
f 62/3/1 45/4/1 48/4/1 63/3/1 
f 29/1/6 32/4/6 47/4/6 50/1/6 
f 32/4/6 35/3/6 64/3/6 47/4/6 
f 35/3/6 33/2/6 57/2/6 64/3/6 
f 33/2/6 29/1/6 50/1/6 57/2/6 
f 77/1/6 78/2/6 79/3/6 80/4/6 
f 74/4/4 73/1/4 81/1/4 82/4/4 
f 73/1/5 76/2/5 83/2/5 81/1/5 
f 76/2/2 75/3/2 84/3/2 83/2/2 
f 75/3/3 74/4/3 82/4/3 84/3/3 
f 82/4/6 81/1/6 85/1/6 86/4/6 
f 81/1/6 83/2/6 87/2/6 85/1/6 
f 83/2/6 84/3/6 88/3/6 87/2/6 
f 84/3/6 82/4/6 86/4/6 88/3/6 
f 86/4/7 85/1/7 77/1/7 80/4/7 
f 85/1/8 87/2/8 78/2/8 77/1/8 
f 87/2/9 88/3/9 79/3/9 78/2/9 
f 88/3/10 86/4/10 80/4/10 79/3/10 
# 86 polygons

