# 3ds Max Wavefront OBJ Exporter v0.97b - (c)2007 guruware
# File Created: 22.10.2017 23:15:32

mtllib Shield.mtl

#
# object Object002
#

v  -1.0747 -2.8103 -2.9551
v  -1.1127 2.5815 -2.9551
v  -0.1581 2.5815 -2.9551
v  0.1581 2.5815 -2.9550
v  1.1127 2.5815 -2.9550
v  1.1508 -2.7783 -2.9550
v  -1.1508 2.8103 3.7651
v  -1.1127 2.5815 3.7652
v  -0.1581 2.5815 3.7652
v  0.1581 2.5815 3.7652
v  1.1127 2.5815 3.7651
v  1.0747 2.8104 3.7651
v  -1.0747 -2.8103 2.9551
v  1.1508 -2.7783 2.9550
v  -1.0776 -2.5921 -2.7453
v  -1.1127 2.5816 -2.7453
v  -1.1479 2.8099 2.7453
v  -1.1127 2.5816 2.7453
v  -1.1127 2.5815 2.9551
v  -1.1508 2.8103 2.9550
v  -1.0776 -2.5921 2.7453
v  1.0776 2.8100 -2.7453
v  1.1127 2.5817 -2.7453
v  1.0747 2.8103 -2.9550
v  1.1479 -2.5600 -2.7453
v  1.1479 -2.5600 2.7453
v  1.1127 2.5817 2.7453
v  1.1127 2.5815 2.9550
v  1.0776 2.8100 2.7453
v  -1.1508 2.8103 -2.9551
v  -1.1479 2.8099 -2.7453
v  1.0747 2.8103 2.9550
v  -1.1127 2.5815 -3.7652
v  -1.1508 2.8103 -3.7652
v  1.0747 2.8103 -3.7651
v  1.1128 2.5815 -3.7651
v  0.1581 2.5815 -3.7651
v  -0.1581 2.5815 -3.7652
v  0.1581 2.5815 2.9551
v  -0.1581 2.5815 2.9551
v  3.9109 3.7974 9.4299
v  5.4138 3.7974 9.4091
v  5.4275 3.7974 8.2552
v  6.9335 3.7974 8.2614
v  6.9297 3.7974 6.9988
v  8.3590 3.7974 7.0104
v  8.3695 3.7974 4.6688
v  9.8330 3.7974 4.6810
v  9.8474 3.7974 1.0715
v  11.2630 3.7974 1.0431
v  11.2582 3.7974 -4.9137
v  12.7203 3.7974 -4.9080
v  12.7031 3.7974 -12.0047
v  -12.6757 3.7974 -12.0736
v  -12.7490 3.7974 -4.9442
v  -11.1772 3.7974 -4.9430
v  -11.1763 3.7974 -4.7291
v  -11.1029 3.7974 1.1483
v  -9.5543 3.7974 1.1422
v  -9.5776 3.7974 4.8515
v  -8.1191 3.7974 4.8421
v  -8.1051 3.7974 7.1224
v  -6.6219 3.7974 7.1616
v  -6.6411 3.7974 8.4430
v  -5.1470 3.7974 8.4290
v  -5.1237 3.7974 9.6428
v  -3.6737 3.7974 9.6249
v  -3.6627 3.7974 10.7927
v  -2.2505 3.7974 10.7837
v  -2.2551 3.7974 11.8478
v  2.3761 3.7974 11.8279
v  2.3915 3.7974 10.6223
v  3.8969 3.7974 10.6351
v  -6.6219 3.3511 7.1616
v  -6.6411 3.3511 8.4430
v  -5.1470 3.3511 8.4290
v  -5.1237 3.3511 9.6428
v  -3.6737 3.3511 9.6249
v  -3.6627 3.3511 10.7927
v  -2.2505 3.3511 10.7837
v  -2.2551 3.3511 11.8478
v  2.3761 3.3511 11.8279
v  2.3915 3.3511 10.6223
v  3.8969 3.3511 10.6351
v  3.9109 3.3511 9.4299
v  5.4138 3.3511 9.4091
v  5.4275 3.3511 8.2552
v  6.9335 3.3511 8.2614
v  6.9297 3.3511 6.9988
v  8.3590 3.3511 7.0104
v  8.3695 3.3511 4.6688
v  9.8330 3.3511 4.6810
v  9.8474 3.3511 1.0715
v  11.2630 3.3511 1.0431
v  11.2582 3.3511 -4.9137
v  12.7203 3.3511 -4.9080
v  12.7031 3.3511 -12.0047
v  -12.6757 3.3511 -12.0736
v  -12.7490 3.3511 -4.9442
v  -11.1772 3.3511 -4.9430
v  -11.1763 3.3511 -4.7291
v  -11.1029 3.3511 1.1483
v  -9.5543 3.3511 1.1422
v  -9.5776 3.3511 4.8515
v  -8.1191 3.3511 4.8421
v  -8.1051 3.3511 7.1224
v  3.7753 3.3511 10.8116
v  5.2670 3.3511 10.8116
v  5.2670 3.3511 9.6413
v  6.7817 3.3511 9.5954
v  6.7587 3.3511 8.3791
v  8.2733 3.3511 8.4020
v  8.2733 3.3511 7.1169
v  9.7879 3.3511 7.1628
v  9.7421 3.3511 4.7532
v  11.3026 3.3511 4.7761
v  11.2567 3.3511 1.1502
v  12.7942 3.3511 1.1961
v  12.8171 3.3511 -4.9083
v  14.3088 3.3511 -4.8624
v  14.2511 3.3511 -13.2442
v  -14.2439 3.3511 -13.2442
v  -14.3088 3.3511 -4.8710
v  -12.9133 3.3511 -4.8385
v  -12.7937 3.3511 1.1732
v  -11.2102 3.3511 1.1732
v  -11.2332 3.3511 4.7991
v  -9.7185 3.3511 4.7532
v  -9.7415 3.3511 7.1398
v  -8.2039 3.3511 7.1398
v  -8.2498 3.3511 8.4479
v  -6.7581 3.3511 8.4020
v  -6.7811 3.3511 9.6413
v  -5.2665 3.3511 9.5724
v  -5.2665 3.3511 10.8346
v  -3.7748 3.3511 10.8805
v  -3.7748 3.3511 12.0050
v  -2.1684 3.3511 11.9820
v  -2.1454 3.3511 13.2442
v  2.2378 3.3511 13.1754
v  2.2378 3.3511 11.9820
v  3.8212 3.3511 12.0050
v  -8.2039 2.7527 7.1398
v  -8.2498 2.7527 8.4479
v  -6.7581 2.7527 8.4020
v  -6.7811 2.7527 9.6413
v  -5.2665 2.7527 9.5724
v  -5.2665 2.7527 10.8346
v  -3.7748 2.7527 10.8805
v  -3.7748 2.7527 12.0050
v  -2.1684 2.7527 11.9820
v  -2.1454 2.7527 13.2442
v  2.2378 2.7527 13.1754
v  2.2378 2.7527 11.9820
v  3.8212 2.7527 12.0050
v  3.7753 2.7527 10.8116
v  5.2670 2.7527 10.8116
v  5.2670 2.7527 9.6413
v  6.7817 2.7527 9.5954
v  6.7587 2.7527 8.3791
v  8.2733 2.7527 8.4020
v  8.2733 2.7527 7.1169
v  9.7879 2.7527 7.1628
v  9.7421 2.7527 4.7532
v  11.3026 2.7527 4.7761
v  11.2567 2.7527 1.1502
v  12.7942 2.7527 1.1961
v  12.8171 2.7527 -4.9083
v  14.3088 2.7527 -4.8624
v  14.2511 2.7527 -13.2442
v  -14.2439 2.7527 -13.2442
v  -14.3088 2.7527 -4.8710
v  -12.9133 2.7527 -4.8385
v  -12.7937 2.7527 1.1732
v  -11.2102 2.7527 1.1732
v  -11.2332 2.7527 4.7991
v  -9.7185 2.7527 4.7532
v  -9.7415 2.7527 7.1398
v  0.3448 2.5072 3.1417
v  0.9261 2.5073 3.1417
v  0.9261 2.5073 3.5785
v  0.3448 2.5073 3.5785
v  -0.3448 2.5073 3.5785
v  -0.9261 2.5073 3.5785
v  -0.9261 2.5072 3.1417
v  -0.3448 2.5072 3.1417
v  -0.3448 2.5072 -3.1417
v  -0.9261 2.5072 -3.1418
v  -0.9260 2.5073 -3.5785
v  -0.3448 2.5073 -3.5785
v  0.3448 2.5073 -3.5785
v  0.9261 2.5073 -3.5784
v  0.9261 2.5072 -3.1417
v  0.3448 2.5072 -3.1417
v  0.9261 2.5815 3.5785
v  0.9261 2.5815 3.1417
v  0.3448 2.5815 3.5785
v  0.3448 2.5815 3.1417
v  -0.3448 2.5815 3.1417
v  -0.9261 2.5815 3.1417
v  -0.3448 2.5815 3.5785
v  -0.9261 2.5815 3.5785
v  -0.9260 2.5815 -3.5785
v  -0.9261 2.5815 -3.1418
v  -0.3448 2.5815 -3.5785
v  -0.3448 2.5815 -3.1417
v  0.3448 2.5815 -3.1417
v  0.9261 2.5815 -3.1417
v  0.3448 2.5815 -3.5785
v  0.9261 2.5815 -3.5784
# 210 vertices

vn 0.0000 0.0000 -1.0000
vn 0.0000 0.0001 1.0000
vn 0.0138 -0.9999 -0.0000
vn -1.0000 -0.0072 -0.0033
vn -0.9864 -0.1644 -0.0068
vn -0.9999 -0.0139 0.0000
vn 0.9864 0.1644 -0.0068
vn 0.9999 0.0138 0.0000
vn 1.0000 0.0073 -0.0033
vn 0.0000 -0.0000 1.0000
vn -0.0139 0.9999 -0.0000
vn -0.0139 0.9999 0.0000
vn -0.0000 -0.0000 -1.0000
vn -0.0000 0.0000 -1.0000
vn -0.0000 1.0000 0.0015
vn -0.0000 1.0000 -0.0015
vn 0.0000 0.0000 1.0000
vn -0.9864 -0.1644 0.0067
vn -1.0000 -0.0072 0.0033
vn 1.0000 0.0073 0.0033
vn 0.9864 0.1644 0.0068
vn -0.0000 1.0000 -0.0001
vn -0.9853 -0.1706 0.0000
vn 0.0000 -1.0000 0.0001
vn 0.9854 0.1705 -0.0000
vn -0.0000 1.0000 0.0000
vn 0.9854 0.1705 0.0000
vn 0.0000 -1.0000 -0.0000
vn -0.9854 -0.1705 -0.0000
vn 0.0000 1.0000 -0.0000
vn -0.0000 1.0000 -0.0000
vn 0.0000 1.0000 0.0000
vn -0.9999 0.0000 -0.0150
vn 0.0094 -0.0000 1.0000
vn -0.9998 -0.0000 0.0192
vn 0.0124 -0.0000 0.9999
vn -1.0000 -0.0000 0.0094
vn 0.0063 -0.0000 1.0000
vn -1.0000 0.0000 -0.0043
vn 0.0043 -0.0000 1.0000
vn 0.9999 -0.0000 0.0128
vn -0.0085 -0.0000 1.0000
vn 0.9999 -0.0000 0.0117
vn 0.0139 -0.0000 0.9999
vn 0.9999 -0.0000 0.0118
vn -0.0041 -0.0000 1.0000
vn 1.0000 0.0000 -0.0030
vn -0.0081 -0.0000 1.0000
vn 1.0000 0.0000 0.0045
vn -0.0084 -0.0000 1.0000
vn 1.0000 -0.0000 0.0040
vn 0.0200 -0.0000 0.9998
vn 1.0000 0.0000 -0.0008
vn -0.0039 -0.0000 1.0000
vn 1.0000 0.0000 -0.0024
vn 0.0027 0.0000 -1.0000
vn -0.9999 0.0000 -0.0103
vn -0.0008 -0.0000 1.0000
vn -1.0000 -0.0000 0.0038
vn -0.9999 -0.0000 0.0125
vn 0.0039 -0.0000 1.0000
vn -1.0000 0.0000 -0.0063
vn 0.0065 -0.0000 1.0000
vn -1.0000 0.0000 0.0061
vn -0.0265 -0.0000 0.9996
vn -0.9994 0.0000 -0.0351
vn 0.0308 -0.0000 0.9995
vn -0.9998 0.0000 -0.0185
vn 0.0454 -0.0000 0.9990
vn -1.0000 -0.0000 0.0000
vn -0.0308 -0.0000 0.9995
vn -1.0000 0.0000 -0.0000
vn 0.0143 -0.0000 0.9999
vn -0.9998 -0.0000 0.0182
vn 0.0157 -0.0000 0.9999
vn 1.0000 0.0000 -0.0000
vn -0.0145 -0.0000 0.9999
vn 0.9993 0.0000 -0.0384
vn 0.0303 -0.0000 0.9995
vn 0.9998 0.0000 -0.0189
vn -0.0151 -0.0000 0.9999
vn -0.0303 -0.0000 0.9995
vn 0.9998 0.0000 -0.0190
vn -0.0147 -0.0000 0.9999
vn 0.9999 0.0000 -0.0127
vn -0.0298 -0.0000 0.9996
vn 1.0000 -0.0000 0.0038
vn 1.0000 0.0000 -0.0069
vn -1.0000 0.0000 -0.0078
vn -0.0232 -0.0000 0.9997
vn -0.9998 -0.0000 0.0199
vn -1.0000 0.0000 -0.0096
vn 0.0000 -1.0000 -0.0001
vn 1.0000 -0.0000 -0.0000
vn -1.0000 0.0000 0.0000
vn -0.0000 -0.0001 -1.0000
vn 1.0000 -0.0000 0.0000
vn -0.0000 -0.0000 1.0000
# 98 vertex normals

vt 0.7637 0.1802 0.0000
vt 0.7650 0.0417 0.0000
vt 0.8009 0.0420 0.0000
vt 0.8128 0.0421 0.0000
vt 0.8488 0.0425 0.0000
vt 0.8475 0.1802 0.0000
vt 0.7211 0.2398 0.0000
vt 0.7149 0.2396 0.0000
vt 0.7113 0.2217 0.0000
vt 0.7101 0.2158 0.0000
vt 0.7065 0.1979 0.0000
vt 0.7128 0.1980 0.0000
vt 0.7637 0.3382 0.0000
vt 0.8475 0.3382 0.0000
vt 0.5700 0.3593 0.0000
vt 0.7082 0.3628 0.0000
vt 0.7080 0.3667 0.0000
vt 0.5639 0.3631 0.0000
vt 0.7201 0.2591 0.0000
vt 0.7139 0.2589 0.0000
vt 0.7141 0.2549 0.0000
vt 0.7203 0.2551 0.0000
vt 0.5756 0.2554 0.0000
vt 0.5700 0.2513 0.0000
vt 0.7192 0.0748 0.0000
vt 0.7131 0.0747 0.0000
vt 0.7133 0.0707 0.0000
vt 0.7195 0.0709 0.0000
vt 0.5755 0.0713 0.0000
vt 0.5700 0.1752 0.0000
vt 0.5640 0.1791 0.0000
vt 0.5699 0.0672 0.0000
vt 0.7076 0.1786 0.0000
vt 0.7074 0.1826 0.0000
vt 0.8879 0.1861 0.0000
vt 0.8867 0.0540 0.0000
vt 0.9705 0.0531 0.0000
vt 0.9718 0.1861 0.0000
vt 0.8879 0.3329 0.0000
vt 0.9718 0.3329 0.0000
vt 0.8879 0.4709 0.0000
vt 0.8867 0.4650 0.0000
vt 0.9705 0.4658 0.0000
vt 0.9717 0.4717 0.0000
vt 0.9717 0.0417 0.0000
vt 0.9717 0.0473 0.0000
vt 0.8879 0.0481 0.0000
vt 0.8879 0.0425 0.0000
vt 0.8879 0.4765 0.0000
vt 0.9717 0.4773 0.0000
vt 0.7268 0.0141 0.0000
vt 0.7330 0.0143 0.0000
vt 0.7203 0.0555 0.0000
vt 0.7141 0.0554 0.0000
vt 0.7195 0.0377 0.0000
vt 0.7213 0.0318 0.0000
vt 0.7650 0.4767 0.0000
vt 0.8488 0.4759 0.0000
vt 0.8128 0.4763 0.0000
vt 0.8009 0.4764 0.0000
vt 0.7144 0.3629 0.0000
vt 0.7142 0.3669 0.0000
vt 0.7138 0.1787 0.0000
vt 0.7136 0.1827 0.0000
vt 0.9713 0.4989 0.0000
vt 0.8875 0.4981 0.0000
vt 0.8132 0.4979 0.0000
vt 0.8013 0.4980 0.0000
vt 0.8875 0.0208 0.0000
vt 0.9713 0.0200 0.0000
vt 0.8013 0.0204 0.0000
vt 0.8133 0.0205 0.0000
vt 0.7134 0.3822 0.0000
vt 0.7072 0.3820 0.0000
vt 0.8235 0.5539 7520.5532
vt 0.8502 0.5543 7520.5532
vt 0.8504 0.5748 7520.5532
vt 0.8772 0.5747 7520.5532
vt 0.8771 0.5971 7520.5532
vt 0.9025 0.5969 7520.5532
vt 0.9027 0.6385 7520.5532
vt 0.9287 0.6383 7520.5532
vt 0.9290 0.7024 7520.5532
vt 0.9541 0.7029 7520.5532
vt 0.9540 0.8088 7520.5532
vt 0.9800 0.8087 7520.5532
vt 0.9797 0.9348 7520.5532
vt 0.5288 0.9360 7520.5532
vt 0.5275 0.8093 7520.5532
vt 0.5554 0.8093 7520.5532
vt 0.5554 0.8055 7520.5532
vt 0.5567 0.7011 7520.5532
vt 0.5842 0.7012 7520.5532
vt 0.5838 0.6353 7520.5532
vt 0.6097 0.6354 7520.5532
vt 0.6100 0.5949 7520.5532
vt 0.6363 0.5942 7520.5532
vt 0.6360 0.5714 7520.5532
vt 0.6625 0.5717 7520.5532
vt 0.6629 0.5501 7520.5532
vt 0.6887 0.5504 7520.5532
vt 0.6889 0.5297 7520.5532
vt 0.7140 0.5299 7520.5532
vt 0.7139 0.5109 7520.5532
vt 0.7962 0.5113 7520.5532
vt 0.7965 0.5327 7520.5532
vt 0.8232 0.5325 7520.5532
vt 0.6363 0.5942 -7520.5532
vt 0.6360 0.5714 -7520.5532
vt 0.6625 0.5717 -7520.5532
vt 0.6629 0.5501 -7520.5532
vt 0.6887 0.5504 -7520.5532
vt 0.6889 0.5297 -7520.5532
vt 0.7140 0.5299 -7520.5532
vt 0.7139 0.5109 -7520.5532
vt 0.7962 0.5113 -7520.5532
vt 0.7965 0.5327 -7520.5532
vt 0.8232 0.5325 -7520.5532
vt 0.8235 0.5539 -7520.5532
vt 0.8502 0.5543 -7520.5532
vt 0.8504 0.5748 -7520.5532
vt 0.8772 0.5747 -7520.5532
vt 0.8771 0.5971 -7520.5532
vt 0.9025 0.5969 -7520.5532
vt 0.9027 0.6385 -7520.5532
vt 0.9287 0.6383 -7520.5532
vt 0.9290 0.7024 -7520.5532
vt 0.9541 0.7029 -7520.5532
vt 0.9540 0.8088 -7520.5532
vt 0.9800 0.8087 -7520.5532
vt 0.9797 0.9348 -7520.5532
vt 0.5288 0.9360 -7520.5532
vt 0.5275 0.8093 -7520.5532
vt 0.5554 0.8093 -7520.5532
vt 0.5554 0.8055 -7520.5532
vt 0.5567 0.7011 -7520.5532
vt 0.5842 0.7012 -7520.5532
vt 0.5838 0.6353 -7520.5532
vt 0.6097 0.6354 -7520.5532
vt 0.6100 0.5949 -7520.5532
vt 0.3435 0.0635 10151.9990
vt 0.3702 0.0635 10151.9990
vt 0.3702 0.0845 10151.9990
vt 0.3973 0.0853 10151.9990
vt 0.3969 0.1070 10151.9990
vt 0.4240 0.1066 10151.9990
vt 0.4240 0.1296 10151.9990
vt 0.4511 0.1288 10151.9990
vt 0.4503 0.1719 10151.9990
vt 0.4782 0.1715 10151.9990
vt 0.4774 0.2364 10151.9990
vt 0.5049 0.2355 10151.9990
vt 0.5053 0.3448 10151.9990
vt 0.5320 0.3439 10151.9990
vt 0.5310 0.4939 10151.9990
vt 0.0212 0.4939 10151.9990
vt 0.0200 0.3441 10151.9990
vt 0.0450 0.3435 10151.9990
vt 0.0471 0.2360 10151.9990
vt 0.0754 0.2360 10151.9990
vt 0.0750 0.1711 10151.9990
vt 0.1021 0.1719 10151.9990
vt 0.1017 0.1292 10151.9990
vt 0.1292 0.1292 10151.9990
vt 0.1284 0.1058 10151.9990
vt 0.1551 0.1066 10151.9990
vt 0.1547 0.0845 10151.9990
vt 0.1818 0.0857 10151.9990
vt 0.1818 0.0631 10151.9990
vt 0.2085 0.0623 10151.9990
vt 0.2085 0.0422 10151.9990
vt 0.2372 0.0426 10151.9990
vt 0.2376 0.0200 10151.9990
vt 0.3160 0.0212 10151.9990
vt 0.3160 0.0426 10151.9990
vt 0.3444 0.0422 10151.9990
vt 0.1292 0.1292 -10151.9990
vt 0.1284 0.1058 -10151.9990
vt 0.1551 0.1066 -10151.9990
vt 0.1547 0.0845 -10151.9990
vt 0.1818 0.0857 -10151.9990
vt 0.1818 0.0631 -10151.9990
vt 0.2085 0.0623 -10151.9990
vt 0.2085 0.0422 -10151.9990
vt 0.2372 0.0426 -10151.9990
vt 0.2376 0.0200 -10151.9990
vt 0.3160 0.0212 -10151.9990
vt 0.3160 0.0426 -10151.9990
vt 0.3444 0.0422 -10151.9990
vt 0.3435 0.0635 -10151.9990
vt 0.3702 0.0635 -10151.9990
vt 0.3702 0.0845 -10151.9990
vt 0.3973 0.0853 -10151.9990
vt 0.3969 0.1070 -10151.9990
vt 0.4240 0.1066 -10151.9990
vt 0.4240 0.1296 -10151.9990
vt 0.4511 0.1288 -10151.9990
vt 0.4503 0.1719 -10151.9990
vt 0.4782 0.1715 -10151.9990
vt 0.4774 0.2364 -10151.9990
vt 0.5049 0.2355 -10151.9990
vt 0.5053 0.3448 -10151.9990
vt 0.5320 0.3439 -10151.9990
vt 0.5310 0.4939 -10151.9990
vt 0.0212 0.4939 -10151.9990
vt 0.0200 0.3441 -10151.9990
vt 0.0450 0.3435 -10151.9990
vt 0.0471 0.2360 -10151.9990
vt 0.0754 0.2360 -10151.9990
vt 0.0750 0.1711 -10151.9990
vt 0.1021 0.1719 -10151.9990
vt 0.1017 0.1292 -10151.9990
vt 0.1246 0.6156 0.0000
vt 0.0983 0.6156 0.0000
vt 0.0987 0.6565 0.0000
vt 0.0727 0.6557 0.0000
vt 0.0731 0.7178 0.0000
vt 0.0460 0.7178 0.0000
vt 0.0439 0.8208 0.0000
vt 0.0200 0.8214 0.0000
vt 0.0211 0.9649 0.0000
vt 0.5094 0.9649 0.0000
vt 0.5104 0.8212 0.0000
vt 0.4848 0.8220 0.0000
vt 0.4844 0.7174 0.0000
vt 0.4581 0.7182 0.0000
vt 0.4589 0.6561 0.0000
vt 0.4321 0.6565 0.0000
vt 0.4329 0.6152 0.0000
vt 0.4070 0.6159 0.0000
vt 0.4070 0.5939 0.0000
vt 0.3810 0.5943 0.0000
vt 0.3814 0.5735 0.0000
vt 0.3555 0.5727 0.0000
vt 0.3555 0.5526 0.0000
vt 0.3299 0.5526 0.0000
vt 0.3307 0.5322 0.0000
vt 0.3035 0.5326 0.0000
vt 0.3035 0.5121 0.0000
vt 0.2284 0.5109 0.0000
vt 0.2280 0.5326 0.0000
vt 0.2005 0.5322 0.0000
vt 0.2005 0.5515 0.0000
vt 0.1750 0.5522 0.0000
vt 0.1750 0.5739 0.0000
vt 0.1490 0.5727 0.0000
vt 0.1494 0.5939 0.0000
vt 0.1238 0.5931 0.0000
vt 0.6548 0.4206 0.0000
vt 0.7403 0.4206 0.0000
vt 0.7403 0.4839 0.0000
vt 0.6548 0.4839 0.0000
vt 0.7411 0.4828 0.0000
vt 0.6556 0.4828 0.0000
vt 0.6556 0.4195 0.0000
vt 0.7411 0.4195 0.0000
vt 0.7410 0.4828 0.0000
vt 0.6555 0.4828 0.0000
vt 0.6555 0.4195 0.0000
vt 0.7410 0.4195 0.0000
vt 0.6550 0.4201 0.0000
vt 0.7405 0.4201 0.0000
vt 0.7405 0.4835 0.0000
vt 0.6550 0.4835 0.0000
vt 0.8492 0.4976 0.0000
vt 0.8421 0.4926 0.0000
vt 0.8418 0.4810 0.0000
vt 0.8202 0.4929 0.0000
vt 0.8200 0.4812 0.0000
vt 0.7940 0.4814 0.0000
vt 0.7721 0.4817 0.0000
vt 0.7942 0.4931 0.0000
vt 0.7654 0.4984 0.0000
vt 0.7723 0.4933 0.0000
vt 0.7654 0.0200 0.0000
vt 0.7723 0.0251 0.0000
vt 0.7721 0.0367 0.0000
vt 0.7942 0.0253 0.0000
vt 0.7940 0.0369 0.0000
vt 0.8200 0.0372 0.0000
vt 0.8418 0.0374 0.0000
vt 0.8202 0.0255 0.0000
vt 0.8492 0.0208 0.0000
vt 0.8421 0.0257 0.0000
vt 0.7508 0.4206 0.0000
vt 0.7508 0.4839 0.0000
vt 0.7403 0.4942 0.0000
vt 0.6548 0.4942 0.0000
vt 0.6444 0.4839 0.0000
vt 0.6444 0.4206 0.0000
vt 0.6548 0.4102 0.0000
vt 0.7403 0.4102 0.0000
vt 0.6556 0.4091 0.0000
vt 0.7411 0.4091 0.0000
vt 0.7516 0.4195 0.0000
vt 0.7516 0.4828 0.0000
vt 0.7411 0.4931 0.0000
vt 0.6556 0.4932 0.0000
vt 0.6451 0.4828 0.0000
vt 0.6451 0.4195 0.0000
vt 0.7410 0.4091 0.0000
vt 0.7515 0.4195 0.0000
vt 0.7515 0.4828 0.0000
vt 0.7410 0.4932 0.0000
vt 0.6555 0.4932 0.0000
vt 0.7405 0.4938 0.0000
vt 0.6550 0.4938 0.0000
vt 0.6445 0.4835 0.0000
vt 0.6445 0.4201 0.0000
vt 0.6550 0.4098 0.0000
vt 0.7405 0.4098 0.0000
vt 0.7510 0.4201 0.0000
vt 0.7510 0.4835 0.0000
# 313 texture coords

g Object002
usemtl 01___Default
s off
f 1/1/1 2/2/1 3/3/1 4/4/1 5/5/1 6/6/1 
f 7/7/2 8/8/2 9/9/2 10/10/2 11/11/2 12/12/2 
f 13/13/3 1/1/3 6/6/3 14/14/3 
f 15/15/4 16/16/4 2/17/4 1/18/4 
f 17/19/5 18/20/5 19/21/5 20/22/5 
f 21/23/6 15/15/6 1/18/6 13/24/6 
f 22/25/7 23/26/7 5/27/7 24/28/7 
f 25/29/8 26/30/8 14/31/8 6/32/8 
f 26/30/9 27/33/9 28/34/9 14/31/9 
s 1
f 25/35/10 23/36/10 16/37/10 15/38/10 
s 2
f 26/39/11 25/35/12 15/38/12 21/40/11 
s 1
f 29/41/13 27/42/13 18/43/14 17/44/14 
s off
f 30/45/15 31/46/15 22/47/15 24/48/15 
f 32/49/16 29/41/16 17/44/16 20/50/16 
f 33/51/1 34/52/1 35/53/1 36/54/1 37/55/1 38/56/1 
f 19/57/17 13/13/17 14/14/17 28/58/17 39/59/17 40/60/17 
f 16/16/18 31/61/18 30/62/18 2/17/18 
f 18/20/19 21/23/19 13/24/19 19/21/19 
f 23/26/20 25/29/20 6/32/20 5/27/20 
f 27/33/21 29/63/21 32/64/21 28/34/21 
s 1
f 23/36/10 22/47/10 31/46/10 16/37/10 
f 27/42/13 26/39/1 21/40/1 18/43/14 
s off
f 32/49/22 20/50/22 7/65/22 12/66/22 
f 20/22/23 19/21/23 8/8/23 7/7/23 
f 40/60/24 39/59/24 10/67/24 9/68/24 
f 28/34/25 32/64/25 12/12/25 11/11/25 
f 30/45/26 24/48/26 35/69/26 34/70/26 
f 24/28/27 5/27/27 36/54/27 35/53/27 
f 4/4/28 3/3/28 38/71/28 37/72/28 
f 2/17/29 30/62/29 34/73/29 33/74/29 
s 1
f 41/75/30 42/76/31 43/77/31 44/78/32 45/79/32 46/80/30 47/81/30 48/82/32 49/83/32 50/84/32 51/85/32 52/86/32 53/87/32 54/88/32 55/89/32 56/90/30 57/91/31 58/92/26 59/93/26 60/94/26 61/95/30 62/96/30 63/97/30 64/98/32 65/99/26 66/100/31 67/101/30 68/102/32 69/103/32 70/104/32 71/105/32 72/106/26 73/107/32 
s off
f 74/108/33 75/109/33 64/98/33 63/97/33 
f 75/109/34 76/110/34 65/99/34 64/98/34 
f 76/110/35 77/111/35 66/100/35 65/99/35 
f 77/111/36 78/112/36 67/101/36 66/100/36 
f 78/112/37 79/113/37 68/102/37 67/101/37 
f 79/113/38 80/114/38 69/103/38 68/102/38 
f 80/114/39 81/115/39 70/104/39 69/103/39 
f 81/115/40 82/116/40 71/105/40 70/104/40 
f 82/116/41 83/117/41 72/106/41 71/105/41 
f 83/117/42 84/118/42 73/107/42 72/106/42 
f 84/118/43 85/119/43 41/75/43 73/107/43 
f 85/119/44 86/120/44 42/76/44 41/75/44 
f 86/120/45 87/121/45 43/77/45 42/76/45 
f 87/121/46 88/122/46 44/78/46 43/77/46 
f 88/122/47 89/123/47 45/79/47 44/78/47 
f 89/123/48 90/124/48 46/80/48 45/79/48 
f 90/124/49 91/125/49 47/81/49 46/80/49 
f 91/125/50 92/126/50 48/82/50 47/81/50 
f 92/126/51 93/127/51 49/83/51 48/82/51 
f 93/127/52 94/128/52 50/84/52 49/83/52 
f 94/128/53 95/129/53 51/85/53 50/84/53 
f 95/129/54 96/130/54 52/86/54 51/85/54 
f 96/130/55 97/131/55 53/87/55 52/86/55 
f 97/131/56 98/132/56 54/88/56 53/87/56 
f 98/132/57 99/133/57 55/89/57 54/88/57 
f 99/133/58 100/134/58 56/90/58 55/89/58 
f 100/134/59 101/135/59 57/91/59 56/90/59 
f 101/135/60 102/136/60 58/92/60 57/91/60 
f 102/136/61 103/137/61 59/93/61 58/92/61 
f 103/137/62 104/138/62 60/94/62 59/93/62 
f 104/138/63 105/139/63 61/95/63 60/94/63 
f 105/139/64 106/140/64 62/96/64 61/95/64 
f 106/140/65 74/108/65 63/97/65 62/96/65 
s 1
f 107/141/32 108/142/32 109/143/32 110/144/30 111/145/32 112/146/32 113/147/32 114/148/30 115/149/30 116/150/32 117/151/30 118/152/30 119/153/32 120/154/32 121/155/32 122/156/26 123/157/26 124/158/26 125/159/31 126/160/26 127/161/26 128/162/31 129/163/31 130/164/32 131/165/32 132/166/26 133/167/31 134/168/31 135/169/32 136/170/32 137/171/32 138/172/32 139/173/31 140/174/31 141/175/26 142/176/32 
s off
f 143/177/66 144/178/66 131/165/66 130/164/66 
f 144/178/67 145/179/67 132/166/67 131/165/67 
f 145/179/68 146/180/68 133/167/68 132/166/68 
f 146/180/69 147/181/69 134/168/69 133/167/69 
f 147/181/70 148/182/70 135/169/70 134/168/70 
f 148/182/71 149/183/71 136/170/71 135/169/71 
f 149/183/72 150/184/72 137/171/72 136/170/72 
f 150/184/73 151/185/73 138/172/73 137/171/73 
f 151/185/74 152/186/74 139/173/74 138/172/74 
f 152/186/75 153/187/75 140/174/75 139/173/75 
f 153/187/76 154/188/76 141/175/76 140/174/76 
f 154/188/77 155/189/77 142/176/77 141/175/77 
f 155/189/78 156/190/78 107/141/78 142/176/78 
f 156/190/10 157/191/10 108/142/10 107/141/10 
f 157/191/76 158/192/76 109/143/76 108/142/76 
f 158/192/79 159/193/79 110/144/79 109/143/79 
f 159/193/80 160/194/80 111/145/80 110/144/80 
f 160/194/81 161/195/81 112/146/81 111/145/81 
f 161/195/76 162/196/76 113/147/76 112/146/76 
f 162/196/82 163/197/82 114/148/82 113/147/82 
f 163/197/83 164/198/83 115/149/83 114/148/83 
f 164/198/84 165/199/84 116/150/84 115/149/84 
f 165/199/85 166/200/85 117/151/85 116/150/85 
f 166/200/86 167/201/86 118/152/86 117/151/86 
f 167/201/87 168/202/87 119/153/87 118/152/87 
f 168/202/71 169/203/71 120/154/71 119/153/71 
f 169/203/88 170/204/88 121/155/88 120/154/88 
f 170/204/1 171/205/1 122/156/1 121/155/1 
f 171/205/89 172/206/89 123/157/89 122/156/89 
f 172/206/90 173/207/90 124/158/90 123/157/90 
f 173/207/91 174/208/91 125/159/91 124/158/91 
f 174/208/10 175/209/10 126/160/10 125/159/10 
f 175/209/62 176/210/62 127/161/62 126/160/62 
f 176/210/79 177/211/79 128/162/79 127/161/79 
f 177/211/92 178/212/92 129/163/92 128/162/92 
f 178/212/10 143/177/10 130/164/10 129/163/10 
f 143/213/28 178/214/28 177/215/28 176/216/28 175/217/28 174/218/28 173/219/28 172/220/28 171/221/28 170/222/28 169/223/28 168/224/28 167/225/28 166/226/28 165/227/28 164/228/28 163/229/28 162/230/28 161/231/28 160/232/28 159/233/28 158/234/28 157/235/28 156/236/28 155/237/28 154/238/28 153/239/28 152/240/28 151/241/28 150/242/28 149/243/28 148/244/28 147/245/28 146/246/28 145/247/28 144/248/28 
f 179/249/24 180/250/24 181/251/24 182/252/24 
f 183/253/24 184/254/24 185/255/24 186/256/24 
f 187/257/28 188/258/28 189/259/28 190/260/28 
f 191/261/28 192/262/28 193/263/28 194/264/28 
f 28/58/24 11/265/24 195/266/24 196/267/24 
f 11/265/24 10/67/24 197/268/24 195/266/24 
f 10/67/24 39/59/24 198/269/24 197/268/24 
f 39/59/24 28/58/24 196/267/24 198/269/24 
f 19/57/24 40/60/24 199/270/24 200/271/24 
f 40/60/24 9/68/24 201/272/24 199/270/24 
f 9/68/24 8/273/24 202/274/24 201/272/24 
f 8/273/24 19/57/24 200/271/24 202/274/24 
f 2/2/28 33/275/28 203/276/28 204/277/28 
f 33/275/93 38/71/93 205/278/93 203/276/93 
f 38/71/28 3/3/28 206/279/28 205/278/28 
f 3/3/93 2/2/93 204/277/93 206/279/93 
f 5/5/93 4/4/93 207/280/93 208/281/93 
f 4/4/28 37/72/28 209/282/28 207/280/28 
f 37/72/93 36/283/93 210/284/93 209/282/93 
f 36/283/28 5/5/28 208/281/28 210/284/28 
f 196/285/94 195/286/94 181/251/94 180/250/94 
f 195/287/2 197/288/2 182/252/2 181/251/2 
f 197/289/95 198/290/95 179/249/95 182/252/95 
f 198/291/96 196/292/96 180/250/96 179/249/96 
f 200/293/96 199/294/96 186/256/96 185/255/96 
f 199/295/94 201/296/94 183/253/94 186/256/94 
f 201/297/2 202/298/2 184/254/2 183/253/2 
f 202/299/95 200/300/95 185/255/95 184/254/95 
f 204/299/72 203/300/72 189/259/72 188/258/72 
f 203/293/1 205/301/1 190/260/1 189/259/1 
f 205/302/97 206/303/97 187/257/97 190/260/97 
f 206/304/98 204/305/98 188/258/98 187/257/98 
f 208/306/98 207/307/98 194/264/98 193/263/98 
f 207/308/72 209/309/72 191/261/72 194/264/72 
f 209/310/1 210/311/1 192/262/1 191/261/1 
f 210/312/97 208/313/97 193/263/97 192/262/97 
# 138 polygons

