# 3ds Max Wavefront OBJ Exporter v0.97b - (c)2007 guruware
# File Created: 22.10.2017 23:18:27

mtllib Greaves.mtl

#
# object Object004
#

v  10.0376 -0.9003 2.7537
v  10.0376 -3.4688 2.7537
v  10.0376 -3.4688 -1.6100
v  10.0376 -2.1932 -1.6100
v  2.7966 -3.1117 6.2347
v  2.7966 -3.5835 6.2347
v  8.9892 -3.5835 6.2347
v  8.9892 -3.1117 6.2347
v  1.7482 -0.9003 -5.9737
v  1.7482 -3.4688 -5.9737
v  1.7482 -3.4688 -1.6100
v  1.7482 -2.1932 -1.6100
v  10.0376 -0.9003 -5.9737
v  10.0376 -3.4688 -5.9737
v  10.3196 -0.9003 -6.2120
v  10.2987 -0.5952 -6.2347
v  10.4068 -1.8881 -1.6100
v  10.4068 -2.1932 -1.6100
v  10.3196 -0.9003 2.9920
v  10.2987 -0.5952 3.0147
v  1.4871 -0.5952 3.0147
v  1.4662 -0.9003 2.9920
v  1.3790 -1.8881 -1.6100
v  1.3790 -2.1932 -1.6100
v  1.4662 -0.9003 -6.2120
v  1.4871 -0.5952 -6.2347
v  1.7482 -0.9003 2.7537
v  1.7482 -3.4688 2.7537
v  10.2987 3.5835 -6.2347
v  10.4068 3.5835 -1.6100
v  10.2987 3.5835 3.0147
v  1.4871 3.5835 3.0147
v  1.3790 3.5835 -1.6100
v  1.4871 3.5835 -6.2347
v  10.0376 3.5835 -5.9737
v  10.0376 3.5835 -1.6100
v  10.0376 3.5835 2.7537
v  1.7482 3.5835 2.7537
v  1.7482 3.5835 -1.6100
v  1.7482 3.5835 -5.9737
v  10.0376 -0.8644 -5.9737
v  10.0376 -0.8644 -1.6100
v  10.0376 -0.8644 2.7537
v  1.7482 -0.8644 2.7537
v  1.7482 -0.8644 -1.6100
v  1.7482 -0.8644 -5.9737
v  -1.7482 -0.9003 2.7537
v  -1.7482 -3.4688 2.7537
v  -1.7482 -3.4688 -1.6100
v  -1.7482 -2.1932 -1.6100
v  -8.9892 -3.1117 6.2347
v  -8.9892 -3.5835 6.2347
v  -2.7966 -3.5835 6.2347
v  -2.7966 -3.1117 6.2347
v  -10.0376 -0.9003 -5.9737
v  -10.0376 -3.4688 -5.9737
v  -10.0376 -3.4688 -1.6100
v  -10.0376 -2.1932 -1.6100
v  -1.7482 -0.9003 -5.9737
v  -1.7482 -3.4688 -5.9737
v  -1.4662 -0.9003 -6.2120
v  -1.4871 -0.5952 -6.2347
v  -1.3790 -1.8881 -1.6100
v  -1.3790 -2.1932 -1.6100
v  -1.4662 -0.9003 2.9920
v  -1.4871 -0.5952 3.0147
v  -10.2987 -0.5952 3.0147
v  -10.3196 -0.9003 2.9920
v  -10.4068 -1.8881 -1.6100
v  -10.4068 -2.1932 -1.6100
v  -10.3196 -0.9003 -6.2120
v  -10.2987 -0.5952 -6.2347
v  -10.0376 -0.9003 2.7537
v  -10.0376 -3.4688 2.7537
v  -1.4871 3.5835 -6.2347
v  -1.3790 3.5835 -1.6100
v  -1.4871 3.5835 3.0147
v  -10.2987 3.5835 3.0147
v  -10.4068 3.5835 -1.6100
v  -10.2987 3.5835 -6.2347
v  -1.7482 3.5835 -5.9737
v  -1.7482 3.5835 -1.6100
v  -1.7482 3.5835 2.7537
v  -10.0376 3.5835 2.7537
v  -10.0376 3.5835 -1.6100
v  -10.0376 3.5835 -5.9737
v  -1.7482 -0.8644 -5.9737
v  -1.7482 -0.8644 -1.6100
v  -1.7482 -0.8644 2.7537
v  -10.0376 -0.8644 2.7537
v  -10.0376 -0.8644 -1.6100
v  -10.0376 -0.8644 -5.9737
# 92 vertices

vn 1.0000 -0.0000 0.0000
vn -0.0000 0.0000 1.0000
vn -1.0000 0.0000 -0.0000
vn 0.0000 0.0000 -1.0000
vn 0.0000 -0.7041 -0.7101
vn 0.9994 0.0339 -0.0117
vn 0.0000 -0.0744 0.9972
vn -0.9994 0.0339 0.0117
vn 0.0000 -0.0744 -0.9972
vn 0.9575 -0.0000 0.2884
vn -0.0000 0.8441 0.5362
vn -0.9575 -0.0000 0.2884
vn 0.9997 0.0000 -0.0234
vn 0.0000 -0.0000 1.0000
vn -0.9997 0.0000 0.0234
vn 0.0000 -0.0000 -1.0000
vn 1.0000 -0.0000 -0.0000
vn -1.0000 -0.0000 -0.0000
vn 0.9994 0.0339 0.0117
vn -0.9994 0.0339 -0.0117
vn 0.9997 0.0000 0.0234
vn -0.9997 0.0000 -0.0234
vn -0.1006 -0.9562 -0.2748
vn 0.0000 -1.0000 -0.0000
vn 0.1006 -0.9562 -0.2748
vn 0.1006 -0.9562 0.2748
vn -0.1006 -0.9562 0.2748
vn 0.0000 1.0000 0.0000
vn -0.0000 1.0000 0.0000
vn -0.0000 -1.0000 -0.0085
vn -0.0000 -0.0000 -1.0000
vn 1.0000 0.0000 0.0000
# 32 vertex normals

vt 0.2385 0.4657 0.0000
vt 0.2181 0.5212 0.0000
vt 0.1191 0.4882 0.0000
vt 0.1292 0.4607 0.0000
vt 0.4382 0.4806 0.0000
vt 0.4431 0.4904 0.0000
vt 0.3083 0.5507 0.0000
vt 0.3035 0.5409 0.0000
vt 0.4921 0.1978 0.0000
vt 0.5500 0.2183 0.0000
vt 0.5134 0.3119 0.0000
vt 0.4846 0.3017 0.0000
vt 0.5616 0.0200 0.0000
vt 0.6195 0.0405 0.0000
vt 0.4177 0.1115 0.0000
vt 0.4177 0.2262 0.0000
vt 0.7133 0.2804 0.0000
vt 0.7270 0.2799 0.0000
vt 0.6509 0.3874 0.0000
vt 0.6345 0.3872 0.0000
vt 0.7072 0.4950 0.0000
vt 0.7211 0.4954 0.0000
vt 0.7109 0.7001 0.0000
vt 0.6986 0.6997 0.0000
vt 0.0200 0.3408 0.0000
vt 0.0200 0.2262 0.0000
vt 0.6247 0.8045 0.0000
vt 0.6087 0.8028 0.0000
vt 0.4177 0.3408 0.0000
vt 0.6652 0.0303 0.0000
vt 0.6842 0.0299 0.0000
vt 0.2997 0.5511 0.0000
vt 0.4189 0.3850 0.0000
vt 0.4768 0.4055 0.0000
vt 0.4489 0.4844 0.0000
vt 0.8773 0.2767 0.0000
vt 0.9359 0.3972 0.0000
vt 0.8643 0.5072 0.0000
vt 0.8742 0.6931 0.0000
vt 0.9449 0.8170 0.0000
vt 0.9462 0.0269 0.0000
vt 0.0200 0.4553 0.0000
vt 0.0404 0.3998 0.0000
vt 0.0200 0.1115 0.0000
vt 0.6464 0.9596 0.0000
vt 0.6296 0.9569 0.0000
vt 0.9295 0.9746 0.0000
vt 0.6171 0.3871 0.0000
vt 0.7005 0.2776 0.0000
vt 0.6526 0.0412 0.0000
vt 0.6104 0.9495 0.0000
vt 0.5905 0.8010 0.0000
vt 0.6878 0.6965 0.0000
vt 0.6945 0.4980 0.0000
vt 0.8908 0.2761 0.0000
vt 0.9542 0.3976 0.0000
vt 0.8751 0.5086 0.0000
vt 0.8873 0.6915 0.0000
vt 0.9651 0.8156 0.0000
vt 0.9464 0.9662 0.0000
vt 0.9571 0.0357 0.0000
vt 0.0703 0.0200 0.0000
vt 0.3674 0.0200 0.0000
vt 0.0200 0.7717 0.0000
vt 0.0200 0.6732 0.0000
vt 0.1609 0.6732 0.0000
vt 0.1609 0.7717 0.0000
vt 0.4236 0.9707 0.0000
vt 0.1609 0.9707 0.0000
vt 0.1609 0.8703 0.0000
vt 0.4236 0.8703 0.0000
vt 0.5645 0.7717 0.0000
vt 0.5645 0.8703 0.0000
vt 0.4236 0.7717 0.0000
vt 0.1609 0.5727 0.0000
vt 0.4236 0.5727 0.0000
vt 0.4236 0.6732 0.0000
vt 0.0200 0.8703 0.0000
vt 0.5645 0.6732 0.0000
# 79 texture coords

g Object004
usemtl 01___Default
s off
f 1/1/1 2/2/1 3/3/1 4/4/1 
f 5/5/2 6/6/2 7/7/2 8/8/2 
f 9/9/3 10/10/3 11/11/3 12/12/3 
f 13/13/4 14/14/4 10/10/4 9/9/4 
f 2/15/5 3/16/5 3/16/5 
f 15/17/6 16/18/6 17/19/6 18/20/6 
f 19/21/7 20/22/7 21/23/7 22/24/7 
f 10/25/5 10/25/5 11/26/5 11/26/5 
f 22/24/8 21/23/8 23/27/8 24/28/8 
f 14/29/5 14/29/5 10/25/5 10/25/5 
f 25/30/9 26/31/9 16/18/9 15/17/9 
f 2/2/10 1/1/10 8/8/10 7/32/10 
f 1/1/11 27/33/11 5/5/11 8/8/11 
f 27/33/12 28/34/12 6/35/12 5/5/12 
f 16/18/13 29/36/13 30/37/13 17/19/13 
f 20/22/14 31/38/14 32/39/14 21/23/14 
f 21/23/15 32/39/15 33/40/15 23/27/15 
f 26/31/16 34/41/16 29/36/16 16/18/16 
f 3/3/17 14/42/17 13/43/17 4/4/17 
f 11/11/18 28/34/18 27/33/18 12/12/18 
f 3/16/5 14/29/5 14/29/5 3/16/5 
f 17/19/19 20/22/19 19/21/19 18/20/19 
f 11/26/5 28/44/5 11/26/5 
f 23/27/20 26/45/20 25/46/20 24/28/20 
f 30/37/21 31/38/21 20/22/21 17/19/21 
f 33/40/22 34/47/22 26/45/22 23/27/22 
f 4/48/23 13/49/23 15/17/23 18/20/23 
f 13/49/24 9/50/24 25/30/24 15/17/24 
f 9/51/25 12/52/25 24/28/25 25/46/25 
f 12/52/26 27/53/26 22/24/26 24/28/26 
f 27/53/24 1/54/24 19/21/24 22/24/24 
f 1/54/27 4/48/27 18/20/27 19/21/27 
f 35/55/28 36/56/28 30/37/28 29/36/28 
f 36/56/28 37/57/28 31/38/28 30/37/28 
f 37/57/28 38/58/28 32/39/28 31/38/28 
f 38/58/28 39/59/28 33/40/28 32/39/28 
f 39/59/29 40/60/29 34/47/29 33/40/29 
f 40/61/28 35/55/28 29/36/28 34/41/28 
f 6/62/30 28/44/30 11/26/30 10/25/30 14/29/30 3/16/30 2/15/30 7/63/30 
f 36/64/18 35/65/18 41/66/18 42/67/18 
f 38/68/31 37/69/31 43/70/31 44/71/31 
f 39/72/32 38/73/32 44/71/32 45/74/32 
f 35/75/2 40/76/2 46/77/2 41/66/2 
f 37/78/18 36/64/18 42/67/18 43/70/18 
f 40/79/32 39/72/32 45/74/32 46/77/32 
f 41/66/29 46/77/29 45/74/29 44/71/29 43/70/29 42/67/29 
f 47/1/1 48/2/1 49/3/1 50/4/1 
f 51/5/2 52/6/2 53/7/2 54/8/2 
f 55/9/3 56/10/3 57/11/3 58/12/3 
f 59/13/4 60/14/4 56/10/4 55/9/4 
f 48/15/5 49/16/5 49/16/5 
f 61/17/6 62/18/6 63/19/6 64/20/6 
f 65/21/7 66/22/7 67/23/7 68/24/7 
f 56/25/5 56/25/5 57/26/5 57/26/5 
f 68/24/8 67/23/8 69/27/8 70/28/8 
f 60/29/5 60/29/5 56/25/5 56/25/5 
f 71/30/9 72/31/9 62/18/9 61/17/9 
f 48/2/10 47/1/10 54/8/10 53/32/10 
f 47/1/11 73/33/11 51/5/11 54/8/11 
f 73/33/12 74/34/12 52/35/12 51/5/12 
f 62/18/13 75/36/13 76/37/13 63/19/13 
f 66/22/14 77/38/14 78/39/14 67/23/14 
f 67/23/15 78/39/15 79/40/15 69/27/15 
f 72/31/16 80/41/16 75/36/16 62/18/16 
f 49/3/17 60/42/17 59/43/17 50/4/17 
f 57/11/18 74/34/18 73/33/18 58/12/18 
f 49/16/5 60/29/5 60/29/5 49/16/5 
f 63/19/19 66/22/19 65/21/19 64/20/19 
f 57/26/5 74/44/5 57/26/5 
f 69/27/20 72/45/20 71/46/20 70/28/20 
f 76/37/21 77/38/21 66/22/21 63/19/21 
f 79/40/22 80/47/22 72/45/22 69/27/22 
f 50/48/23 59/49/23 61/17/23 64/20/23 
f 59/49/24 55/50/24 71/30/24 61/17/24 
f 55/51/25 58/52/25 70/28/25 71/46/25 
f 58/52/26 73/53/26 68/24/26 70/28/26 
f 73/53/24 47/54/24 65/21/24 68/24/24 
f 47/54/27 50/48/27 64/20/27 65/21/27 
f 81/55/28 82/56/28 76/37/28 75/36/28 
f 82/56/28 83/57/28 77/38/28 76/37/28 
f 83/57/28 84/58/28 78/39/28 77/38/28 
f 84/58/28 85/59/28 79/40/28 78/39/28 
f 85/59/29 86/60/29 80/47/29 79/40/29 
f 86/61/28 81/55/28 75/36/28 80/41/28 
f 52/62/30 74/44/30 57/26/30 56/25/30 60/29/30 49/16/30 48/15/30 53/63/30 
f 82/64/18 81/65/18 87/66/18 88/67/18 
f 84/68/31 83/69/31 89/70/31 90/71/31 
f 85/72/32 84/73/32 90/71/32 91/74/32 
f 81/75/2 86/76/2 92/77/2 87/66/2 
f 83/78/18 82/64/18 88/67/18 89/70/18 
f 86/79/32 85/72/32 91/74/32 92/77/32 
f 87/66/29 92/77/29 91/74/29 90/71/29 89/70/29 88/67/29 
# 88 polygons - 4 triangles

