# 3ds Max Wavefront OBJ Exporter v0.97b - (c)2007 guruware
# File Created: 22.10.2017 23:19:53

mtllib Jacket.mtl

#
# object jacket
#

v  8.7325 1.0697 4.8680
v  3.3980 -9.9694 4.8680
v  3.3980 -12.6990 4.8680
v  10.6912 -12.6990 4.8680
v  10.6902 6.7697 4.8680
v  10.6900 12.1157 4.8680
v  10.6900 12.6939 4.8680
v  3.3980 12.6939 4.8680
v  8.7325 10.5913 4.8680
v  3.3980 3.9333 4.8680
v  -3.3980 12.6939 5.2514
v  -8.7325 10.5913 4.9894
v  -3.3980 3.9333 5.2514
v  -3.3980 12.1157 5.2514
v  3.3980 -12.6990 4.3346
v  10.6914 -12.6990 4.3346
v  -3.3980 -12.6990 4.8680
v  -10.6659 -12.6990 4.8680
v  -10.6665 -12.6990 4.3346
v  -3.3980 -12.6990 4.3346
v  -3.3980 12.6939 4.3346
v  -10.6655 12.6939 4.3346
v  -10.6655 12.6939 4.8680
v  -3.3980 12.6939 4.8680
v  10.6900 12.6939 4.3345
v  3.3980 12.6939 4.3346
v  11.5423 6.7702 4.8680
v  11.5423 12.1157 4.8680
v  -3.3980 -9.9694 5.2514
v  -8.7325 1.0697 4.9203
v  -10.6655 12.1157 4.8680
v  -10.6655 6.7878 4.8680
v  -3.3980 -9.9694 4.8680
v  -8.7325 1.0697 4.8680
v  -3.3980 3.9333 4.8680
v  -8.7325 10.5913 4.8680
v  3.3980 12.6939 5.2514
v  3.3980 12.1157 5.2514
v  3.3980 3.9333 5.2514
v  8.7325 10.5913 4.9894
v  3.3980 -9.9694 4.3346
v  3.3980 12.1157 4.3346
v  10.6900 12.1157 4.3345
v  10.6902 6.7714 4.3345
v  8.7325 1.0697 4.9203
v  3.3980 -9.9694 5.2514
v  3.3980 12.1157 4.8680
v  -3.3980 12.1157 4.3346
v  -3.3980 12.1157 4.8680
v  11.5423 12.0525 3.0625
v  11.5423 6.8331 3.0621
v  10.6903 6.8335 3.0615
v  10.6900 12.0531 3.0620
v  -11.5423 12.1157 4.8680
v  -11.5423 6.7874 4.8680
v  -10.6656 6.7887 4.3346
v  -10.6655 12.1157 4.3346
v  11.5423 12.6939 4.8680
v  10.8735 12.0591 -5.2514
v  10.8735 6.7361 -5.2514
v  -10.8735 6.7361 -5.2514
v  -10.8735 12.0591 -5.2514
v  10.8735 -12.6990 -4.7180
v  10.8735 6.7361 -4.7180
v  -10.8735 6.7361 -4.7180
v  -10.8735 -12.6990 -4.7180
v  10.8735 -12.6990 -5.2514
v  -10.8735 -12.6990 -5.2514
v  11.5423 -12.6990 -5.2514
v  11.5423 6.7361 -5.2514
v  11.5423 6.7361 -4.7180
v  11.5423 -12.6990 -4.7180
v  -10.8735 12.6939 -5.2514
v  -10.8735 12.6939 -4.7180
v  10.8735 12.6939 -4.7180
v  10.8735 12.6939 -5.2514
v  -11.5423 12.6939 -5.2514
v  -11.5423 12.0591 -5.2514
v  -11.5423 12.0591 -4.7180
v  -11.5423 12.6939 -4.7180
v  11.5423 12.0591 -5.2514
v  11.5423 12.6939 -5.2514
v  11.5423 12.6939 -4.7180
v  11.5423 12.0591 -4.7180
v  -11.5423 6.7361 -5.2514
v  -11.5423 6.7361 -4.7180
v  -11.5423 -12.6990 -5.2514
v  -10.8735 11.9958 -3.4460
v  -11.5423 11.9964 -3.4454
v  -11.5423 6.7992 -3.4459
v  -10.8735 6.7998 -3.4466
v  -11.5423 -12.6990 -4.7180
v  -11.5423 12.6939 4.8680
v  11.5423 -12.6990 4.3346
v  11.5423 -12.6990 4.8680
v  -11.5423 -12.6990 4.8680
v  10.8735 12.0591 -4.7180
v  -10.8735 12.0591 -4.7180
v  11.5423 6.7991 -3.4459
v  11.5423 11.9964 -3.4454
v  10.8735 11.9959 -3.4460
v  10.8735 6.7997 -3.4464
v  -11.5423 6.8503 3.0621
v  -11.5423 12.0525 3.0625
v  -10.6655 12.0531 3.0619
v  -10.6657 6.8507 3.0614
v  -11.5423 6.7876 3.1252
v  -11.5423 -12.6990 3.1252
v  -11.5423 12.1157 4.3346
v  -11.5423 12.1157 3.1252
v  -11.5423 12.6939 4.3346
v  -11.5423 12.0591 -3.5086
v  -10.6656 6.7379 3.1252
v  -10.6655 12.6991 3.1252
v  -10.6655 12.1157 3.6037
v  -10.6665 -12.6990 3.1252
v  11.5423 12.6939 4.3345
v  11.5423 12.1157 3.1252
v  11.5423 12.0591 -3.5086
v  11.5423 6.7703 3.1252
v  11.5423 -12.6990 3.1252
v  10.6914 -12.6990 3.1252
v  10.6902 6.7714 3.1252
v  10.6900 12.1157 3.1252
v  11.5423 6.7361 -3.5086
v  11.5423 -12.6990 -3.5086
v  10.8735 12.0591 -3.5086
v  10.8735 6.7361 -3.5086
v  10.8735 -12.6990 -3.5086
v  -10.8735 -12.6990 -3.5086
v  -11.5423 -12.6990 -3.5086
v  -10.8735 6.6853 -3.5086
v  -10.8735 12.6424 -3.5086
v  -11.5423 6.7361 -3.5086
v  25.0248 12.1157 3.1252
v  25.0248 6.7620 3.1335
v  25.0249 6.8248 3.0705
v  25.0248 12.0526 3.0624
v  25.0248 6.7361 -3.5086
v  25.0248 6.7992 -3.4459
v  25.0248 12.0591 -3.5086
v  25.0248 11.9964 -3.4454
v  -25.0248 7.0281 3.1332
v  -25.0248 12.3641 3.1252
v  -25.0248 12.3010 3.0624
v  -25.0249 7.0908 3.0701
v  -25.0248 12.3075 -3.5086
v  -25.0248 12.2448 -3.4454
v  -25.0248 6.9845 -3.5086
v  -25.0248 7.0477 -3.4460
v  23.6758 6.7628 3.1327
v  23.6758 12.1157 3.1252
v  23.6758 6.7361 -3.5086
v  23.6758 12.0591 -3.5086
v  23.6758 12.0526 3.0624
v  23.6759 6.8256 3.0697
v  23.6758 11.9964 -3.4454
v  23.6758 6.7992 -3.4459
v  -23.6758 12.3641 3.1252
v  -23.6758 7.0289 3.1324
v  -23.6758 12.3075 -3.5086
v  -23.6758 6.9845 -3.5086
v  -23.6759 7.0916 3.0693
v  -23.6758 12.3010 3.0625
v  -23.6758 7.0477 -3.4460
v  -23.6758 12.2448 -3.4454
v  -10.8298 12.0709 -2.8170
v  10.8350 12.0709 -2.8170
v  3.2278 12.0709 -2.8170
v  -3.2278 12.0709 -2.8170
v  -3.2278 12.6939 -2.8170
v  3.2278 12.6939 -2.8170
# 172 vertices

vn 0.0000 0.0000 1.0000
vn -0.0000 0.0000 1.0000
vn -0.0491 0.0000 0.9988
vn 0.0000 -1.0000 0.0000
vn 0.7071 -0.7071 -0.0000
vn -0.0000 1.0000 -0.0000
vn -0.0620 0.0000 0.9981
vn 0.0491 0.0000 0.9988
vn -0.0000 -0.0000 -1.0000
vn -0.0022 0.0000 1.0000
vn 0.0000 -0.0000 -1.0000
vn 0.0620 0.0000 0.9981
vn -1.0000 0.0000 0.0000
vn -0.8917 -0.4526 0.0028
vn 0.8917 -0.4526 0.0028
vn 1.0000 -0.0000 -0.0000
vn 1.0000 0.0000 -0.0000
vn 0.0007 0.0001 -1.0000
vn 0.7018 0.7124 -0.0000
vn -1.0000 -0.0000 0.0000
vn 0.0009 -0.0001 1.0000
vn -0.0008 -0.0001 1.0000
vn -0.0008 0.0001 -1.0000
vn -0.0007 0.0001 -1.0000
vn -1.0000 -0.0000 -0.0000
vn -1.0000 -0.0001 0.0000
vn -0.7158 0.6983 -0.0057
vn -0.7117 -0.7025 0.0044
vn -0.9988 -0.0438 -0.0230
vn -0.9559 0.2937 -0.0007
vn -0.7070 -0.7071 -0.0093
vn -0.7024 0.7116 -0.0142
vn -0.9996 -0.0000 -0.0276
vn -0.9996 -0.0000 -0.0275
vn -0.9996 -0.0001 -0.0274
vn 1.0000 0.0000 0.0000
vn -0.0000 -1.0000 -0.0000
vn 0.9995 0.0000 -0.0312
vn 0.9995 -0.0000 -0.0313
vn 0.9995 -0.0000 -0.0312
vn 0.0007 -1.0000 0.0086
vn -0.0008 -1.0000 0.0088
vn -0.0009 -1.0000 0.0088
vn 0.0006 -1.0000 0.0086
vn 0.0005 1.0000 -0.0052
vn 0.0008 1.0000 -0.0052
vn -0.0009 1.0000 -0.0079
vn -0.0004 1.0000 -0.0078
vn -0.0009 1.0000 -0.0078
vn 0.0008 -1.0000 0.0086
vn -0.0006 -1.0000 0.0088
vn -0.0007 -1.0000 0.0088
vn 1.0000 0.0000 0.0006
vn 1.0000 -0.0006 -0.0000
vn -1.0000 -0.0000 -0.0006
vn -0.9996 0.0001 -0.0279
vn -0.9996 0.0003 -0.0279
vn -1.0000 0.0000 0.0006
vn -1.0000 -0.0006 -0.0000
vn 1.0000 -0.0000 -0.0004
vn 0.9995 0.0001 -0.0316
vn 0.9995 0.0000 -0.0316
vn -0.0003 0.0007 1.0000
vn -0.0003 -1.0000 0.0046
vn -0.0000 1.0000 -0.0085
vn 0.0003 -0.0007 -1.0000
vn 0.0000 -1.0000 0.0086
vn 0.0000 -0.0001 1.0000
vn 0.0003 1.0000 -0.0046
vn 0.0003 0.0007 1.0000
vn 0.0205 0.9998 -0.0085
vn -0.0202 -0.9998 0.0072
vn -0.0003 -0.0006 -1.0000
vn 0.0202 0.9998 -0.0073
vn -0.0000 -0.0001 1.0000
vn -0.0205 -0.9998 0.0086
vn -0.0003 0.0015 1.0000
vn -0.0003 -1.0000 0.0040
vn 0.0000 1.0000 -0.0085
vn 0.0003 -0.0015 -1.0000
vn 0.0003 1.0000 -0.0040
vn 0.0003 0.0014 1.0000
vn 0.0003 -1.0000 0.0066
vn -0.0003 -0.0014 -1.0000
vn -0.0003 1.0000 -0.0067
vn -0.0000 -1.0000 0.0086
vn 0.0000 -1.0000 0.0063
vn 0.0000 1.0000 0.0000
vn -0.0000 1.0000 0.0000
vn -0.9997 0.0000 0.0238
vn 0.9997 0.0000 0.0238
# 91 vertex normals

vt 0.9463 0.6381 0.0000
vt 0.8942 0.5637 0.0000
vt 0.8943 0.5453 0.0000
vt 0.9658 0.5454 0.0000
vt 0.9653 0.6765 0.0000
vt 0.9652 0.7126 0.0000
vt 0.9652 0.7165 0.0000
vt 0.8937 0.7164 0.0000
vt 0.9461 0.7023 0.0000
vt 0.8939 0.6573 0.0000
vt 0.5689 0.5324 0.0000
vt 0.5127 0.5300 0.0000
vt 0.5425 0.4762 0.0000
vt 0.5671 0.5287 0.0000
vt 0.8943 0.5417 0.0000
vt 0.9658 0.5418 0.0000
vt 0.8275 0.5452 0.0000
vt 0.7562 0.5451 0.0000
vt 0.7562 0.5415 0.0000
vt 0.8275 0.5416 0.0000
vt 0.8270 0.7199 0.0000
vt 0.7558 0.7198 0.0000
vt 0.7558 0.7162 0.0000
vt 0.8271 0.7163 0.0000
vt 0.9652 0.7201 0.0000
vt 0.8937 0.7200 0.0000
vt 0.9737 0.6766 0.0000
vt 0.9736 0.7126 0.0000
vt 0.5395 0.5694 0.0000
vt 0.5519 0.6627 0.0000
vt 0.4972 0.6468 0.0000
vt 0.7558 0.7123 0.0000
vt 0.7559 0.6764 0.0000
vt 0.8274 0.5636 0.0000
vt 0.7749 0.6379 0.0000
vt 0.8272 0.6573 0.0000
vt 0.7748 0.7020 0.0000
vt 0.5846 0.5322 0.0000
vt 0.5855 0.5284 0.0000
vt 0.5978 0.4739 0.0000
vt 0.6395 0.5237 0.0000
vt 0.9732 0.0101 0.0000
vt 0.9740 0.0348 0.0000
vt 0.9805 0.2392 0.0000
vt 0.8811 0.2404 0.0000
vt 0.8794 0.1782 0.0000
vt 0.8770 0.0111 0.0000
vt 0.6207 0.6540 0.0000
vt 0.5630 0.6639 0.0000
vt 0.5962 0.5731 0.0000
vt 0.7558 0.4496 0.0000
vt 0.7506 0.4495 0.0000
vt 0.7511 0.3559 0.0000
vt 0.7514 0.3008 0.0000
vt 0.7567 0.3008 0.0000
vt 0.7557 0.4679 0.0000
vt 0.7505 0.4679 0.0000
vt 0.9602 0.3012 0.0000
vt 0.9654 0.3012 0.0000
vt 0.9652 0.3562 0.0000
vt 0.9648 0.4498 0.0000
vt 0.9647 0.4681 0.0000
vt 0.9594 0.4681 0.0000
vt 0.3603 0.2498 0.0000
vt 0.5219 0.2498 0.0000
vt 0.7179 0.2498 0.0000
vt 0.7179 0.2560 0.0000
vt 0.5219 0.2522 0.0000
vt 0.3603 0.2574 0.0000
vt 0.9060 0.2498 0.0000
vt 0.9060 0.2560 0.0000
vt 0.7186 0.2813 0.0000
vt 0.5222 0.2818 0.0000
vt 0.3603 0.2818 0.0000
vt 0.3603 0.2743 0.0000
vt 0.5222 0.2794 0.0000
vt 0.7186 0.2753 0.0000
vt 0.9202 0.2813 0.0000
vt 0.9069 0.2813 0.0000
vt 0.9069 0.2753 0.0000
vt 0.9202 0.2753 0.0000
vt 0.6450 0.5340 0.0000
vt 0.6466 0.4851 0.0000
vt 0.6528 0.2966 0.0000
vt 0.6624 0.2968 0.0000
vt 0.6479 0.4851 0.0000
vt 0.6545 0.5341 0.0000
vt 0.6377 0.7713 0.0000
vt 0.6473 0.7715 0.0000
vt 0.6966 0.3002 0.0000
vt 0.6939 0.4887 0.0000
vt 0.6932 0.5376 0.0000
vt 0.6837 0.5375 0.0000
vt 0.6926 0.4887 0.0000
vt 0.6870 0.3001 0.0000
vt 0.6877 0.7750 0.0000
vt 0.6782 0.7749 0.0000
vt 0.7309 0.9666 0.0000
vt 0.7310 0.9296 0.0000
vt 0.7394 0.9297 0.0000
vt 0.7396 0.9668 0.0000
vt 0.7472 0.7123 0.0000
vt 0.7473 0.6764 0.0000
vt 0.2804 0.2246 0.0000
vt 0.2797 0.0120 0.0000
vt 0.3718 0.0118 0.0000
vt 0.3724 0.1788 0.0000
vt 0.3725 0.2244 0.0000
vt 0.9736 0.7165 0.0000
vt 0.7515 0.2969 0.0000
vt 0.7567 0.2969 0.0000
vt 0.9602 0.2973 0.0000
vt 0.9654 0.2973 0.0000
vt 0.9193 0.2498 0.0000
vt 0.9193 0.2560 0.0000
vt 0.1511 0.6967 0.0000
vt 0.1500 0.6253 0.0000
vt 0.3757 0.6223 0.0000
vt 0.3763 0.6931 0.0000
vt 0.7622 0.0112 0.0000
vt 0.7627 0.1778 0.0000
vt 0.4871 0.1782 0.0000
vt 0.4866 0.0116 0.0000
vt 0.9677 0.4772 0.0000
vt 0.9677 0.4808 0.0000
vt 0.7544 0.4806 0.0000
vt 0.7544 0.4770 0.0000
vt 0.1407 0.3665 0.0000
vt 0.1431 0.6253 0.0000
vt 0.1375 0.6253 0.0000
vt 0.1351 0.3666 0.0000
vt 0.7536 0.7844 0.0000
vt 0.7536 0.7808 0.0000
vt 0.9668 0.7811 0.0000
vt 0.9668 0.7847 0.0000
vt 0.3835 0.7012 0.0000
vt 0.3832 0.6930 0.0000
vt 0.3887 0.6929 0.0000
vt 0.3889 0.7007 0.0000
vt 0.1512 0.7051 0.0000
vt 0.3765 0.7015 0.0000
vt 0.1441 0.6971 0.0000
vt 0.1443 0.7054 0.0000
vt 0.1388 0.7057 0.0000
vt 0.1386 0.6974 0.0000
vt 0.3826 0.6223 0.0000
vt 0.3881 0.6222 0.0000
vt 0.3740 0.3635 0.0000
vt 0.3810 0.3633 0.0000
vt 0.7369 0.9233 0.0000
vt 0.7299 0.9229 0.0000
vt 0.7322 0.8861 0.0000
vt 0.7398 0.8861 0.0000
vt 0.9743 0.4772 0.0000
vt 0.9743 0.4808 0.0000
vt 0.7478 0.4806 0.0000
vt 0.7478 0.4770 0.0000
vt 0.7470 0.7844 0.0000
vt 0.7470 0.7808 0.0000
vt 0.9734 0.7811 0.0000
vt 0.9734 0.7847 0.0000
vt 0.7472 0.7162 0.0000
vt 0.9741 0.5418 0.0000
vt 0.9741 0.5454 0.0000
vt 0.7476 0.5451 0.0000
vt 0.1476 0.3663 0.0000
vt 0.7629 0.2234 0.0000
vt 0.4873 0.2238 0.0000
vt 0.3865 0.3633 0.0000
vt 0.7318 0.8833 0.0000
vt 0.7318 0.8463 0.0000
vt 0.7389 0.8462 0.0000
vt 0.7391 0.8833 0.0000
vt 0.7321 0.8403 0.0000
vt 0.7320 0.8038 0.0000
vt 0.7408 0.8035 0.0000
vt 0.7404 0.8402 0.0000
vt 0.4866 0.3621 0.0000
vt 0.4887 0.6232 0.0000
vt 0.4696 0.6221 0.0000
vt 0.4683 0.3624 0.0000
vt 0.4844 0.7019 0.0000
vt 0.4786 0.7014 0.0000
vt 0.4626 0.6999 0.0000
vt 0.4782 0.7091 0.0000
vt 0.4008 0.6933 0.0000
vt 0.3877 0.1783 0.0000
vt 0.3879 0.2294 0.0000
vt 0.3818 0.2244 0.0000
vt 0.3872 0.0118 0.0000
vt 0.7477 0.5334 0.0000
vt 0.7563 0.5334 0.0000
vt 0.0495 0.7085 0.0000
vt 0.0441 0.7096 0.0000
vt 0.0431 0.7021 0.0000
vt 0.0611 0.7003 0.0000
vt 0.1238 0.6976 0.0000
vt 0.0383 0.6271 0.0000
vt 0.0560 0.6266 0.0000
vt 0.0354 0.3684 0.0000
vt 0.0410 0.3683 0.0000
vt 0.0536 0.3680 0.0000
vt 0.9658 0.5336 0.0000
vt 0.9741 0.5336 0.0000
vt 0.8616 0.0111 0.0000
vt 0.8621 0.1779 0.0000
vt 0.8563 0.2394 0.0000
vt 0.1248 0.6252 0.0000
vt 0.1225 0.3669 0.0000
vt 0.9611 0.7812 0.0000
vt 0.9609 0.7737 0.0000
vt 0.9598 0.7328 0.0000
vt 0.9595 0.7201 0.0000
vt 0.7780 0.1777 0.0000
vt 0.7782 0.2233 0.0000
vt 0.7775 0.0112 0.0000
vt 0.9742 0.4889 0.0000
vt 0.9677 0.4889 0.0000
vt 0.7543 0.4887 0.0000
vt 0.7478 0.4887 0.0000
vt 0.4718 0.1778 0.0000
vt 0.4713 0.0117 0.0000
vt 0.4720 0.2288 0.0000
vt 0.4007 0.6221 0.0000
vt 0.3992 0.3631 0.0000
vt 0.7278 0.9688 0.0000
vt 0.7363 0.9695 0.0000
vt 0.7313 0.8001 0.0000
vt 0.7398 0.8000 0.0000
vt 0.7890 0.8474 0.0000
vt 0.8290 0.8688 0.0000
vt 0.8284 0.8692 0.0000
vt 0.7892 0.8485 0.0000
vt 0.8461 0.8959 0.0000
vt 0.8451 0.8960 0.0000
vt 0.8420 0.9228 0.0000
vt 0.8413 0.9225 0.0000
vt 0.8091 0.9545 0.0000
vt 0.8088 0.9533 0.0000
vt 0.7398 0.9297 0.0000
vt 0.7402 0.9673 0.0000
vt 0.7403 0.7994 0.0000
vt 0.7396 0.8462 0.0000
vt 0.7399 0.8833 0.0000
vt 0.8354 0.9262 0.0000
vt 0.8035 0.9539 0.0000
vt 0.8033 0.9527 0.0000
vt 0.8346 0.9259 0.0000
vt 0.7919 0.8473 0.0000
vt 0.8300 0.8703 0.0000
vt 0.8294 0.8706 0.0000
vt 0.7920 0.8484 0.0000
vt 0.8419 0.8956 0.0000
vt 0.8409 0.8957 0.0000
vt 0.7415 0.7989 0.0000
vt 0.7409 0.8402 0.0000
vt 0.7411 0.8858 0.0000
vt 0.7405 0.9254 0.0000
vt 0.7427 0.9704 0.0000
vt 0.9193 0.7968 0.0000
vt 0.9465 0.8333 0.0000
vt 0.8390 0.8639 0.0000
vt 0.7987 0.8393 0.0000
vt 0.9657 0.8841 0.0000
vt 0.8557 0.8950 0.0000
vt 0.9715 0.9255 0.0000
vt 0.8542 0.9246 0.0000
vt 0.9631 0.9791 0.0000
vt 0.8227 0.9612 0.0000
vt 0.6058 0.9665 0.0000
vt 0.6059 0.9294 0.0000
vt 0.6065 0.8464 0.0000
vt 0.6063 0.8003 0.0000
vt 0.6064 0.8832 0.0000
vt 0.9693 0.9368 0.0000
vt 0.9591 0.9800 0.0000
vt 0.8159 0.9602 0.0000
vt 0.8476 0.9295 0.0000
vt 0.9173 0.7957 0.0000
vt 0.9489 0.8427 0.0000
vt 0.8386 0.8665 0.0000
vt 0.7998 0.8412 0.0000
vt 0.9636 0.8827 0.0000
vt 0.8531 0.8940 0.0000
vt 0.6085 0.8389 0.0000
vt 0.6084 0.8022 0.0000
vt 0.6079 0.8846 0.0000
vt 0.6060 0.9210 0.0000
vt 0.6042 0.9666 0.0000
vt 0.5920 0.9665 0.0000
vt 0.5920 0.9294 0.0000
vt 0.5925 0.8464 0.0000
vt 0.5924 0.8003 0.0000
vt 0.5925 0.8832 0.0000
vt 0.5947 0.8388 0.0000
vt 0.5947 0.8023 0.0000
vt 0.5941 0.8844 0.0000
vt 0.5922 0.9207 0.0000
vt 0.5904 0.9664 0.0000
vt 0.3877 0.7503 0.0000
vt 0.5627 0.7555 0.0000
vt 0.5642 0.9266 0.0000
vt 0.5646 0.9721 0.0000
vt 0.0411 0.9567 0.0000
vt 0.0427 0.9113 0.0000
vt 0.0486 0.7404 0.0000
vt 0.2241 0.7455 0.0000
vt 0.2258 0.9166 0.0000
vt 0.3812 0.9212 0.0000
vt 0.8286 0.7681 0.0000
vt 0.8919 0.7681 0.0000
vt 0.8268 0.2970 0.0000
vt 0.8268 0.3012 0.0000
vt 0.8901 0.2971 0.0000
vt 0.8901 0.3013 0.0000
vt 0.4838 0.7097 0.0000
vt 0.7472 0.7198 0.0000
vt 0.9736 0.7201 0.0000
# 318 texture coords

g jacket
usemtl 09___Default
s 4
f 1/1/1 2/2/2 3/3/1 4/4/1 5/5/1 6/6/1 7/7/1 8/8/1 9/9/1 10/10/1 
f 11/11/3 12/12/3 13/13/3 14/14/3 
s 8
f 15/15/4 16/16/4 4/4/4 3/3/4 
f 17/17/5 18/18/4 19/19/4 20/20/5 
s 32
f 21/21/6 22/22/6 23/23/6 24/24/6 
f 8/8/6 7/7/6 25/25/6 26/26/6 
s 4
f 27/27/1 28/28/1 6/6/1 5/5/1 
f 29/29/7 13/30/7 30/31/7 
f 24/24/1 23/23/1 31/32/1 32/33/1 18/18/1 17/17/1 33/34/1 34/35/1 35/36/1 36/37/1 
f 37/38/8 38/39/8 39/40/8 40/41/8 
s 2
f 15/42/9 41/43/9 42/44/9 43/45/9 44/46/10 16/47/11 
s 4
f 45/48/12 39/49/12 46/50/12 
s 9
f 41/51/13 2/52/13 10/53/13 47/54/13 42/55/14 
s 16
f 41/51/13 15/56/13 3/57/13 2/52/13 
s 9
f 48/58/15 49/59/16 35/60/16 33/61/16 17/62/5 20/63/5 
s off
f 24/64/13 36/65/13 35/66/13 13/67/13 12/68/13 11/69/13 
f 35/66/16 49/70/16 14/71/16 13/67/16 
f 10/72/16 9/73/16 8/74/16 37/75/16 40/76/16 39/77/16 
f 8/78/13 47/79/13 38/80/13 37/81/13 
f 35/82/13 34/83/13 33/84/13 29/85/13 30/86/13 13/87/13 
f 33/88/16 35/82/16 13/87/16 29/89/16 
f 2/90/17 1/91/17 10/92/17 39/93/17 45/94/17 46/95/17 
f 10/92/13 2/96/13 46/97/13 39/93/13 
s 2
f 50/98/18 51/99/18 52/100/18 53/101/18 
s 4
f 54/102/1 55/103/1 32/33/1 31/32/1 
s 2
f 48/104/9 20/105/9 19/106/9 56/107/9 57/108/9 
s 4
f 28/28/1 58/109/1 7/7/1 6/6/1 
s 8
f 47/54/13 8/110/13 26/111/13 42/55/14 
s 1
f 48/58/15 21/112/19 24/113/16 49/59/16 
s off
f 49/70/16 24/114/16 11/115/16 14/71/16 
f 47/79/13 10/72/13 39/77/13 38/80/13 
s 2
f 59/116/9 60/117/9 61/118/9 62/119/9 
s 4
f 63/120/1 64/121/1 65/122/1 66/123/1 
s 8
f 67/124/4 63/125/4 66/126/4 68/127/4 
s 16
f 69/128/16 70/129/16 71/130/16 72/131/16 
s 32
f 73/132/6 74/133/6 75/134/6 76/135/6 
s 64
f 77/136/13 78/137/13 79/138/13 80/139/20 
s 2
f 76/140/9 59/116/9 62/119/9 73/141/9 
s 16
f 81/142/16 82/143/16 83/144/17 84/145/17 
s 64
f 78/137/13 85/146/13 86/147/13 79/138/13 
s 2
f 59/116/9 81/142/9 70/129/9 60/117/9 
f 68/148/9 87/149/9 85/146/9 61/118/9 
s 4
f 88/150/21 89/151/21 90/152/21 91/153/21 
s 8
f 67/124/4 69/154/4 72/155/4 63/125/4 
f 66/126/4 92/156/4 87/157/4 68/127/4 
s 32
f 73/132/6 77/158/6 80/159/6 74/133/6 
f 75/134/6 83/160/6 82/161/6 76/135/6 
s 2
f 76/140/9 82/143/9 81/142/9 59/116/9 
f 62/119/9 78/137/9 77/136/9 73/141/9 
s 4
f 23/23/1 93/162/1 54/102/1 31/32/1 
s 8
f 16/16/4 94/163/4 95/164/4 4/4/4 
s 4
f 55/103/1 96/165/1 18/18/1 32/33/1 
s 2
f 60/117/9 67/166/9 68/148/9 61/118/9 
s 4
f 64/121/1 97/167/1 98/168/1 65/122/1 
s 16
f 70/129/16 81/142/16 84/145/17 71/130/16 
s 64
f 85/146/13 87/149/13 92/169/13 86/147/13 
s 2
f 70/129/9 69/128/9 67/166/9 60/117/9 
f 85/146/9 78/137/9 62/119/9 61/118/9 
s 4
f 99/170/22 100/171/22 101/172/22 102/173/22 
f 5/5/1 4/4/1 95/164/1 27/27/1 
s 2
f 103/174/23 104/175/24 105/176/24 106/177/23 
s 64
f 96/178/13 55/179/13 107/180/13 108/181/13 
f 55/179/13 54/182/13 109/183/13 110/184/13 107/180/13 
s 65
f 109/183/13 111/185/20 80/139/20 79/138/13 112/186/25 110/184/13 
s off
f 57/108/16 56/107/16 113/187/16 114/188/16 115/189/16 
f 56/107/16 19/106/16 116/190/16 113/187/16 
s 8
f 19/19/4 18/18/4 96/165/4 108/191/4 116/192/4 
s 17
f 117/193/16 58/194/16 28/195/16 118/196/16 119/197/17 84/145/17 83/144/17 
s 16
f 28/195/16 27/198/16 120/199/16 118/196/16 
f 120/199/16 27/198/16 95/200/16 94/201/16 121/202/16 
s off
f 94/163/4 16/16/4 122/203/4 121/204/4 
f 122/205/26 16/47/26 44/46/26 123/206/26 
f 44/46/20 43/45/20 124/207/20 123/206/20 
f 72/131/16 71/130/16 125/208/16 126/209/16 
f 71/130/16 84/145/16 119/197/16 125/208/16 
s 1
f 75/134/27 97/210/28 127/211/29 124/212/30 43/213/31 25/25/32 
s off
f 97/167/13 64/121/13 128/214/13 127/215/13 
f 64/121/13 63/120/13 129/216/13 128/214/13 
f 63/125/4 72/155/4 126/217/4 129/218/4 
f 92/156/4 66/126/4 130/219/4 131/220/4 
f 66/123/17 65/122/17 132/221/17 130/222/17 
f 65/122/16 98/168/16 133/223/16 132/221/16 
f 79/138/13 86/147/13 134/224/13 112/186/13 
f 86/147/13 92/169/13 131/225/13 134/224/13 
s 1
f 128/214/33 129/216/34 122/205/35 123/206/33 
f 126/209/36 125/208/36 120/199/36 121/202/36 
s 2
f 126/217/37 121/204/37 122/203/37 129/218/37 
s 1
f 130/222/38 132/221/39 113/187/39 116/190/40 
f 134/224/25 131/225/25 108/181/25 107/180/25 
s 2
f 108/191/37 131/220/37 130/219/37 116/192/37 
s 8
f 104/226/41 89/151/42 88/150/43 105/227/44 
f 51/99/45 99/170/46 102/173/46 52/100/45 
f 90/152/47 103/174/48 106/177/48 91/153/49 
f 100/171/50 50/228/51 53/229/52 101/172/41 
s off
f 135/230/53 136/231/53 137/232/53 138/233/53 
f 136/231/54 139/234/54 140/235/54 137/232/54 
f 139/234/16 141/236/16 142/237/16 140/235/16 
f 141/236/36 135/238/36 138/239/36 142/237/36 
f 123/240/55 124/241/55 53/101/55 52/100/55 
f 124/242/56 127/243/56 101/172/56 53/229/56 
f 127/243/13 128/244/13 102/173/13 101/172/13 
f 128/244/57 123/240/57 52/100/57 102/173/57 
f 143/245/58 144/246/58 145/247/58 146/248/58 
f 144/249/25 147/250/25 148/251/25 145/252/25 
f 147/250/13 149/253/13 150/254/13 148/251/13 
f 149/253/59 143/245/59 146/248/59 150/254/59 
f 114/255/60 113/256/60 106/177/60 105/176/60 
f 113/256/61 132/257/61 91/153/61 106/177/61 
f 132/257/16 133/258/16 88/150/16 91/153/16 
f 133/258/62 114/259/62 105/227/62 88/150/62 
f 118/260/63 120/261/63 151/262/63 152/263/63 
f 120/261/64 125/264/64 153/265/64 151/262/64 
f 125/264/9 119/266/9 154/267/9 153/265/9 
f 119/266/65 118/268/65 152/269/65 154/267/65 
f 51/99/66 50/98/66 155/270/66 156/271/66 
f 50/228/67 100/171/67 157/272/67 155/273/67 
f 100/171/68 99/170/68 158/274/68 157/272/68 
f 99/170/69 51/99/69 156/271/69 158/274/69 
f 107/275/70 110/276/70 159/277/70 160/278/70 
f 110/279/71 112/280/71 161/281/71 159/282/71 
f 112/280/9 134/283/9 162/284/9 161/281/9 
f 134/283/72 107/275/72 160/278/72 162/284/72 
f 104/175/73 103/174/73 163/285/73 164/286/73 
f 103/174/74 90/152/74 165/287/74 163/285/74 
f 90/152/75 89/151/75 166/288/75 165/287/75 
f 89/151/76 104/226/76 164/289/76 166/288/76 
f 152/263/77 151/262/77 136/231/77 135/230/77 
f 151/262/78 153/265/78 139/234/78 136/231/78 
f 153/265/11 154/267/11 141/236/11 139/234/11 
f 154/267/79 152/269/79 135/238/79 141/236/79 
f 156/271/80 155/270/80 138/290/80 137/291/80 
f 155/273/67 157/272/67 142/292/67 138/293/67 
f 157/272/68 158/274/68 140/294/68 142/292/68 
f 158/274/81 156/271/81 137/291/81 140/294/81 
f 160/278/82 159/277/82 144/246/82 143/245/82 
f 159/282/65 161/281/65 147/250/65 144/249/65 
f 161/281/9 162/284/9 149/253/9 147/250/9 
f 162/284/83 160/278/83 143/245/83 149/253/83 
f 164/286/84 163/285/84 146/295/84 145/296/84 
f 163/285/85 165/287/85 150/297/85 146/295/85 
f 165/287/75 166/288/75 148/298/75 150/297/75 
f 166/288/86 164/289/86 145/299/86 148/298/86 
s 17
f 48/300/15 57/301/87 167/302/87 98/303/87 97/304/28 168/305/87 43/306/31 42/307/14 169/308/87 170/309/87 
s 7
f 75/134/27 74/133/88 22/22/88 21/21/19 171/310/88 172/311/89 26/26/89 25/25/32 
s 64
f 26/111/90 172/312/90 169/313/90 42/55/90 
f 171/314/91 21/112/91 48/58/91 170/315/91 
s 8
f 172/312/1 171/314/1 170/315/1 169/313/1 
s 65
f 109/183/13 54/182/13 93/316/13 111/185/20 
s 8
f 23/23/6 22/22/6 111/317/6 93/162/6 
s 16
f 22/22/88 74/133/88 80/159/88 111/317/88 
s 8
f 75/134/88 25/25/88 117/318/88 83/160/88 
s 64
f 25/25/6 7/7/6 58/109/6 117/318/6 
# 150 polygons - 2 triangles

