# 3ds Max Wavefront OBJ Exporter v0.97b - (c)2007 guruware
# File Created: 21.10.2017 23:27:58

mtllib tallgrass.mtl

#
# object tall_grass008
#

v  -0.3280 -20.6289 0.2965
v  -0.3280 -20.6289 -0.2965
v  0.3280 -20.6289 -0.2965
v  0.3280 -20.6289 0.2965
v  -0.0404 12.2650 0.0365
v  0.0404 12.2650 0.0365
v  0.0404 12.2650 -0.0365
v  -0.0404 12.2650 -0.0365
v  -1.2926 -20.6289 0.2965
v  -1.2926 -20.6289 -0.2965
v  -0.6366 -20.6289 -0.2965
v  -0.6366 -20.6289 0.2965
v  -1.0051 16.9210 0.0365
v  -0.9242 16.9210 0.0365
v  -0.9242 16.9210 -0.0365
v  -1.0051 16.9210 -0.0365
v  0.3280 -20.6289 -0.9946
v  -0.3280 -20.6289 -0.9946
v  -0.3280 -20.6289 -1.5875
v  0.3280 -20.6289 -1.5875
v  0.0404 20.8292 -1.2545
v  -0.0404 20.8292 -1.2545
v  -0.0404 20.8292 -1.3275
v  0.0404 20.8292 -1.3275
v  -0.6366 -20.6289 -0.9946
v  -1.2926 -20.6289 -0.9946
v  -1.2926 -20.6289 -1.5875
v  -0.6366 -20.6289 -1.5875
v  -0.9242 8.1089 -1.2545
v  -1.0051 8.1089 -1.2545
v  -1.0051 8.1089 -1.3275
v  -0.9242 8.1089 -1.3275
# 32 vertices

vn 0.0000 -1.0000 -0.0000
vn 0.0000 0.0079 1.0000
vn 1.0000 0.0087 -0.0000
vn 0.0000 0.0079 -1.0000
vn -1.0000 0.0087 -0.0000
vn 0.0000 1.0000 -0.0000
vn 0.0000 0.0069 1.0000
vn 1.0000 0.0077 -0.0000
vn 0.0000 0.0069 -1.0000
vn -1.0000 0.0077 -0.0000
vn 0.0000 0.0063 1.0000
vn -1.0000 0.0069 -0.0000
vn 0.0000 0.0063 -1.0000
vn 1.0000 0.0069 -0.0000
vn 0.0000 0.0090 1.0000
vn -0.9999 0.0100 -0.0000
vn 0.0000 0.0090 -1.0000
vn 0.9999 0.0100 -0.0000
# 18 vertex normals

vt 0.0391 0.7888 0.0000
vt 0.0357 0.9261 0.0000
vt 0.0182 0.9277 0.0000
vt 0.0217 0.7904 0.0000
vt 0.9409 0.7702 0.0000
vt 0.0426 0.6515 0.0000
vt 0.9443 0.6330 0.0000
vt 0.0460 0.5143 0.0000
vt 0.9477 0.4957 0.0000
vt 0.0494 0.3770 0.0000
vt 0.9512 0.3584 0.0000
vt 0.9374 0.9075 0.0000
vt 0.9583 0.7687 0.0000
vt 0.9549 0.9060 0.0000
# 14 texture coords

g tall_grass008
usemtl 19___Default
s 1
f 1/1/1 2/2/1 3/3/1 4/4/1 
s 2
f 5/5/2 1/1/2 4/6/2 6/7/2 
s 4
f 6/7/3 4/6/3 3/8/3 7/9/3 
s 2
f 7/9/4 3/8/4 2/10/4 8/11/4 
s 4
f 8/12/5 2/2/5 1/1/5 5/5/5 
s off
f 6/13/6 7/14/6 8/12/6 5/5/6 
s 1
f 9/1/1 10/2/1 11/3/1 12/4/1 
s 2
f 13/5/7 9/1/7 12/6/7 14/7/7 
s 4
f 14/7/8 12/6/8 11/8/8 15/9/8 
s 2
f 15/9/9 11/8/9 10/10/9 16/11/9 
s 4
f 16/12/10 10/2/10 9/1/10 13/5/10 
s off
f 14/13/6 15/14/6 16/12/6 13/5/6 
s 1
f 17/1/1 18/4/1 19/3/1 20/2/1 
s 2
f 21/5/11 22/7/11 18/6/11 17/1/11 
s 4
f 22/7/12 23/9/12 19/8/12 18/6/12 
s 2
f 23/9/13 24/11/13 20/10/13 19/8/13 
s 4
f 24/12/14 21/5/14 17/1/14 20/2/14 
s off
f 22/13/6 21/5/6 24/12/6 23/14/6 
s 1
f 25/1/1 26/4/1 27/3/1 28/2/1 
s 2
f 29/5/15 30/7/15 26/6/15 25/1/15 
s 4
f 30/7/16 31/9/16 27/8/16 26/6/16 
s 2
f 31/9/17 32/11/17 28/10/17 27/8/17 
s 4
f 32/12/18 29/5/18 25/1/18 28/2/18 
s off
f 30/13/6 29/5/6 32/12/6 31/14/6 
# 24 polygons

