# 3ds Max Wavefront OBJ Exporter v0.97b - (c)2007 guruware
# File Created: 21.10.2017 16:57:16

mtllib tree4.mtl

#
# object tree004
#

v  -4.0125 -70.5668 6.0447
v  -4.0125 -70.5668 -6.0447
v  5.6035 -70.5668 -6.0447
v  5.6035 -70.5668 6.0447
v  -4.0125 9.4213 -6.0447
v  5.6035 9.4209 -6.0447
v  -4.0125 9.4225 6.0447
v  5.6035 9.4225 6.0447
v  -32.5880 46.9328 -34.6203
v  -32.5880 59.7724 -34.6203
v  8.8075 59.7724 -34.6203
v  34.1790 59.7724 -34.6203
v  -32.5880 9.4213 -34.6203
v  34.1790 9.4209 -34.6203
v  -7.6753 9.4212 -34.6203
v  34.1790 59.7724 0.6924
v  34.1790 59.7724 34.6203
v  34.1790 47.1598 34.6203
v  34.1790 9.4221 17.0907
v  34.1790 9.4225 34.6203
v  -32.5880 9.4216 -3.9405
v  -7.5617 9.4218 -3.9224
v  -32.5880 46.9330 14.0903
v  -32.5880 46.9331 34.6203
v  -32.5880 59.7724 34.6203
v  -32.5880 59.7724 -16.2351
v  -32.5880 9.4218 14.0903
v  8.8113 59.7724 34.6198
v  -32.5880 46.6972 34.6203
v  15.5402 9.4225 34.6203
v  -32.5880 9.4225 34.6203
v  -21.7936 46.6972 34.6203
v  -21.7936 9.4225 34.6203
v  -21.7393 9.4218 14.0903
v  -21.7393 -1.3727 14.0906
v  -44.9735 -1.3727 14.0906
v  -44.9735 46.9330 14.0903
v  -44.9735 46.9331 45.4147
v  -21.7936 46.6972 45.4147
v  -44.9735 -1.3719 45.4147
v  -21.7936 -1.3719 45.4147
v  8.8075 59.7724 -16.2471
v  8.8075 59.7724 0.6924
v  8.8075 70.5668 0.6924
v  8.7764 70.5668 -45.4147
v  8.7764 59.7724 -45.4147
v  44.9734 70.5668 -45.4147
v  44.9734 59.7724 -45.4147
v  44.9734 59.7724 0.6924
v  44.9734 70.5668 0.6924
v  34.1790 48.9779 -34.6203
v  34.1790 48.9779 0.6924
v  44.9734 48.9779 -45.4147
v  8.7764 49.1025 -45.4147
v  44.9734 48.9779 0.6924
v  8.8075 49.1025 -34.6203
v  8.8075 64.8665 0.6924
v  8.5500 64.8665 39.6951
v  8.5126 59.7724 39.7144
v  8.8075 64.8665 -16.2471
v  -32.5880 59.7724 39.7144
v  -32.5880 64.8665 39.7144
v  -37.6821 64.8665 39.7144
v  -37.6821 59.7724 39.7144
v  -37.6821 59.7724 -16.2351
v  -37.6821 64.8665 -16.2351
v  -32.5880 54.6783 34.6203
v  -32.5880 54.6783 -16.2351
v  -37.6821 54.6783 39.7144
v  8.4572 54.6783 39.7144
v  -37.6821 54.6783 -16.2351
v  -32.5880 64.8665 39.6951
v  8.7611 54.6783 34.4933
v  15.9128 9.4225 16.3540
v  15.9128 7.1120 16.3541
v  15.5402 7.1120 34.6203
v  34.1792 21.1132 34.6200
v  34.1793 21.1128 17.0905
v  15.6351 7.1120 36.2376
v  37.2539 7.1120 36.2376
v  37.2541 21.1132 36.2373
v  34.1792 21.1132 36.2373
v  15.6353 21.1132 36.2373
v  37.2539 7.1115 17.0908
v  37.2542 21.1127 17.0905
v  37.2541 21.1131 34.6200
v  15.6296 21.1132 34.6200
v  15.6296 21.1132 36.2373
# 88 vertices

vn 0.0000 -1.0000 -0.0000
vn 0.0000 0.0000 -1.0000
vn -1.0000 0.0000 -0.0000
vn 1.0000 0.0000 -0.0000
vn 0.0000 0.0000 1.0000
vn 0.0000 -1.0000 0.0000
vn -0.0000 0.0000 1.0000
vn 0.0000 -0.0000 -1.0000
vn -0.0000 -0.0000 -1.0000
vn -0.0000 1.0000 -0.0000
vn 0.0204 0.9998 0.0015
vn 0.0000 1.0000 -0.0000
vn 1.0000 0.0007 0.0010
vn 1.0000 0.0009 0.0009
vn 1.0000 0.0005 0.0024
vn 1.0000 0.0000 0.0026
vn -1.0000 -0.0000 -0.0000
vn -1.0000 -0.0004 0.0001
vn -1.0000 -0.0014 0.0012
vn -1.0000 -0.0011 0.0018
vn -1.0000 0.0000 0.0029
vn -0.0018 -1.0000 -0.0014
vn -0.0049 -1.0000 0.0000
vn -0.0045 -1.0000 -0.0009
vn -0.0017 -1.0000 -0.0017
vn 0.9994 0.0296 0.0193
vn 1.0000 0.0000 -0.0001
vn 1.0000 0.0042 0.0005
vn 0.9993 0.0188 0.0326
vn 0.9983 -0.0071 0.0585
vn 1.0000 0.0000 0.0000
vn -0.0003 -0.0003 -1.0000
vn -0.0003 0.0000 -1.0000
vn 0.0000 0.0038 1.0000
vn 0.9982 -0.0111 0.0583
vn -0.0000 -1.0000 0.0000
vn -0.0001 -1.0000 0.0001
vn -0.0000 -1.0000 -0.0000
vn 0.0000 -1.0000 0.0001
vn -0.9998 0.0000 -0.0204
vn 0.0372 0.0247 -0.9990
vn 0.0002 -1.0000 0.0000
vn 1.0000 -0.0000 0.0000
vn 1.0000 -0.0000 -0.0000
vn -1.0000 0.0001 0.0043
vn -0.9983 0.0064 0.0586
vn -0.9985 0.0059 0.0543
vn -1.0000 -0.0004 0.0000
# 48 vertex normals

vt 0.0513 0.2800 0.0000
vt 0.0513 0.3193 0.0000
vt 0.0200 0.3193 0.0000
vt 0.0200 0.2800 0.0000
vt 0.0905 0.2800 0.0000
vt 0.0905 0.0200 0.0000
vt 0.1218 0.0200 0.0000
vt 0.1218 0.2800 0.0000
vt 0.0513 0.0200 0.0000
vt 0.1611 0.2800 0.0000
vt 0.1611 0.0200 0.0000
vt 0.0200 0.0200 0.0000
vt 0.3684 0.2284 0.0000
vt 0.3264 0.2284 0.0000
vt 0.3264 0.0912 0.0000
vt 0.3264 0.0071 0.0000
vt 0.4912 0.2284 0.0000
vt 0.4912 0.0071 0.0000
vt 0.4912 0.1458 0.0000
vt 0.7097 0.2284 0.0000
vt 0.8745 0.2284 0.0000
vt 0.8745 0.3454 0.0000
vt 0.8745 0.4578 0.0000
vt 0.8332 0.4578 0.0000
vt 0.7097 0.3997 0.0000
vt 0.7097 0.4578 0.0000
vt 0.4912 0.3300 0.0000
vt 0.5727 0.2284 0.0000
vt 0.5731 0.3301 0.0000
vt 0.3684 0.3898 0.0000
vt 0.3684 0.4578 0.0000
vt 0.3264 0.4578 0.0000
vt 0.3264 0.2893 0.0000
vt 0.4912 0.3898 0.0000
vt 0.8745 0.5419 0.0000
vt 0.8745 0.6790 0.0000
vt 0.8324 0.6790 0.0000
vt 0.8317 0.6790 0.0000
vt 0.7097 0.5196 0.0000
vt 0.7097 0.6790 0.0000
vt 0.8317 0.6433 0.0000
vt 0.7097 0.6433 0.0000
vt 0.1760 0.5741 0.0000
vt 0.2618 0.6013 0.0000
vt 0.1983 0.6959 0.0000
vt 0.1582 0.6429 0.0000
vt 0.1034 0.7753 0.0000
vt 0.0395 0.7822 0.0000
vt 0.1303 0.8943 0.0000
vt 0.1850 0.8211 0.0000
vt 0.2796 0.9409 0.0000
vt 0.1295 0.8967 0.0000
vt 0.1812 0.9899 0.0000
vt 0.2208 0.7455 0.0000
vt 0.2622 0.7338 0.0000
vt 0.3238 0.7308 0.0000
vt 0.3423 0.9358 0.0000
vt 0.3315 0.6051 0.0000
vt 0.1909 0.2892 0.0000
vt 0.1909 0.2284 0.0000
vt 0.9855 0.4578 0.0000
vt 0.9855 0.5419 0.0000
vt 0.6607 0.6885 0.0000
vt 0.6681 0.7640 0.0000
vt 0.6217 0.7800 0.0000
vt 0.6531 0.6060 0.0000
vt 0.6014 0.5497 0.0000
vt 0.6471 0.5580 0.0000
vt 0.4860 0.6073 0.0000
vt 0.4840 0.6090 0.0000
vt 0.5176 0.4735 0.0000
vt 0.6040 0.8413 0.0000
vt 0.4655 0.8232 0.0000
vt 0.4478 0.7993 0.0000
vt 0.4708 0.7855 0.0000
vt 0.3433 0.7496 0.0000
vt 0.4071 0.6096 0.0000
vt 0.4520 0.6276 0.0000
vt 0.3841 0.7751 0.0000
vt 0.4821 0.6124 0.0000
vt 0.4119 0.4942 0.0000
vt 0.4106 0.7760 0.0000
vt 0.3608 0.5577 0.0000
vt 0.6921 0.5524 0.0000
vt 0.6995 0.6003 0.0000
vt 0.2406 0.3580 0.0000
vt 0.2499 0.4736 0.0000
vt 0.2315 0.4746 0.0000
vt 0.2219 0.3422 0.0000
vt 0.2392 0.3407 0.0000
vt 0.2533 0.5384 0.0000
vt 0.2338 0.5395 0.0000
vt 0.0817 0.3345 0.0000
vt 0.0881 0.3438 0.0000
vt 0.0804 0.3463 0.0000
vt 0.0733 0.3419 0.0000
vt 0.0779 0.5389 0.0000
vt 0.0740 0.5277 0.0000
vt 0.0765 0.5246 0.0000
vt 0.2301 0.5575 0.0000
vt 0.1909 0.1853 0.0000
vt 0.1909 0.0200 0.0000
vt 0.2075 0.0200 0.0000
vt 0.2075 0.1853 0.0000
vt 0.0621 0.3337 0.0000
vt 0.2090 0.3058 0.0000
vt 0.2157 0.3234 0.0000
vt 0.0534 0.5294 0.0000
vt 0.0620 0.5229 0.0000
vt 0.0893 0.3467 0.0000
vt 0.0692 0.5229 0.0000
vt 0.0718 0.3407 0.0000
vt 0.0602 0.3333 0.0000
vt 0.2043 0.2872 0.0000
vt 0.2564 0.3393 0.0000
vt 0.2579 0.3571 0.0000
vt 0.5847 0.3231 0.0000
vt 0.6499 0.3973 0.0000
vt 0.6162 0.3231 0.0000
vt 0.6162 0.3631 0.0000
vt 0.5847 0.3631 0.0000
vt 0.6487 0.4578 0.0000
vt 0.4912 0.4578 0.0000
vt 0.8555 0.8138 0.0000
vt 0.9297 0.7875 0.0000
vt 0.9331 0.7969 0.0000
vt 0.8589 0.8232 0.0000
vt 0.6714 0.4578 0.0000
vt 0.6714 0.3997 0.0000
vt 0.8416 0.8311 0.0000
vt 0.9164 0.8740 0.0000
vt 0.9119 0.8889 0.0000
vt 0.9046 0.8915 0.0000
vt 0.8354 0.8833 0.0000
vt 0.9411 0.7968 0.0000
vt 0.9414 0.8604 0.0000
vt 0.9336 0.8651 0.0000
vt 0.9675 0.8884 0.0000
vt 0.9580 0.8965 0.0000
vt 0.9141 0.8909 0.0000
vt 0.9566 0.9051 0.0000
vt 0.9076 0.8964 0.0000
vt 0.2952 0.0200 0.0000
vt 0.2952 0.0253 0.0000
vt 0.2349 0.0253 0.0000
vt 0.2349 0.0200 0.0000
vt 0.7904 0.6744 0.0000
vt 0.7732 0.6823 0.0000
# 148 texture coords

g tree004
usemtl 14___Default
s 2
f 1/1/1 2/2/1 3/3/1 4/4/1 
s 32
f 2/5/2 5/6/2 6/7/2 3/8/2 
s 64
f 2/5/3 1/1/3 7/9/3 5/6/3 
s 17
f 4/10/4 3/8/4 6/7/4 8/11/4 
s 8
f 4/4/5 8/12/5 7/9/5 1/1/5 
usemtl 19___Default
s 32
f 9/13/2 10/14/2 11/15/2 12/16/2 
f 13/17/2 9/13/2 12/16/2 14/18/2 
f 13/17/2 14/18/2 15/19/2 
s 16
f 14/20/4 12/21/4 16/22/4 17/23/4 
f 14/20/4 17/23/4 18/24/4 19/25/4 
f 18/24/4 20/26/4 19/25/4 
s off
f 21/27/6 13/17/6 15/28/6 22/29/6 
s 64
f 23/30/3 24/31/3 25/32/3 9/13/3 
f 26/33/3 10/14/3 9/13/3 25/32/3 
f 9/13/3 13/17/3 21/27/3 27/34/3 
f 23/30/3 9/13/3 27/34/3 
s 8
f 18/24/7 17/23/7 28/35/5 25/36/5 
f 18/24/7 25/36/5 24/37/5 29/38/5 
f 20/26/5 18/24/7 29/38/5 30/39/5 
f 31/40/2 30/39/5 29/38/5 32/41/2 
f 31/40/2 32/41/2 33/42/2 
usemtl 21___Default
s off
f 34/43/8 35/44/8 36/45/8 27/46/8 
f 27/46/9 36/45/9 37/47/9 23/48/9 
f 24/49/10 23/48/10 37/47/10 38/50/10 
f 24/49/11 38/50/11 39/51/11 29/52/11 
f 29/52/12 39/51/12 32/53/12 
f 40/54/6 36/45/6 35/44/6 41/55/6 
s 1
f 33/56/13 32/57/4 39/51/4 41/55/14 
f 33/56/13 41/55/14 35/44/15 34/58/16 
s off
f 38/50/5 40/54/5 41/55/5 39/51/5 
s 64
f 37/47/3 36/45/3 40/54/3 38/50/3 
usemtl 19___Default
s 4
f 10/14/12 26/33/12 42/59/12 11/60/12 
f 28/35/12 17/23/12 16/61/12 43/62/12 
usemtl 21___Default
s 1
f 42/63/17 43/64/3 44/65/18 11/66/19 
f 11/66/19 44/65/18 45/67/20 46/68/21 
s off
f 45/67/2 47/69/2 48/70/2 46/71/2 
f 44/65/5 43/72/5 16/73/5 49/74/5 
f 44/65/5 49/74/5 50/75/5 
usemtl 19___Default
f 16/76/3 12/77/3 51/78/3 52/79/3 
usemtl 21___Default
s 2
f 48/70/2 53/80/2 54/81/2 46/71/2 
s off
f 49/74/5 16/73/5 52/79/5 55/82/5 
s 4
f 45/67/12 44/65/12 50/75/12 47/69/12 
s off
f 49/74/4 48/70/4 47/69/4 50/75/4 
f 55/82/4 53/80/4 48/70/4 49/74/4 
s 1
f 51/78/22 56/83/23 54/81/24 53/80/25 
f 52/79/1 51/78/22 53/80/25 55/82/1 
s off
f 11/66/21 46/68/21 54/84/21 56/85/21 
usemtl 22___Default
s 2
f 28/86/26 43/87/27 57/88/28 58/89/29 
f 28/86/26 58/89/29 59/90/30 
s off
f 43/87/31 42/91/31 60/92/31 57/88/31 
f 61/93/5 62/94/5 63/95/5 64/96/5 
f 26/97/32 65/98/32 66/99/32 42/100/32 
f 60/92/33 42/100/33 66/99/33 
f 26/101/4 25/102/4 67/103/4 68/104/4 
f 61/93/5 64/96/5 69/105/5 70/106/5 
f 61/93/5 70/106/5 59/107/5 
f 65/98/2 26/97/2 68/108/2 71/109/2 
s 4
f 57/88/12 60/92/12 66/99/12 58/89/12 
f 72/110/12 58/89/12 66/99/12 63/95/12 
f 72/110/12 63/95/12 62/94/12 
s off
f 65/111/3 64/112/3 63/95/3 66/99/3 
f 71/109/3 69/105/3 64/112/3 65/111/3 
s 1
f 67/113/1 73/114/1 70/106/1 69/105/1 
f 68/108/1 67/113/1 69/105/1 71/109/1 
f 59/107/34 58/89/34 72/110/34 61/93/34 
s off
f 59/90/35 70/115/35 73/116/35 28/86/35 
usemtl 19___Default
f 22/29/36 15/28/36 14/20/36 5/117/36 
f 14/20/6 19/25/6 74/118/6 6/119/6 
f 74/118/37 8/120/37 6/119/37 
f 14/20/38 6/119/38 5/117/38 
f 7/121/1 8/120/1 74/118/1 27/34/1 
f 30/122/6 31/123/6 27/34/6 74/118/6 
f 5/117/39 7/121/39 27/34/39 22/29/39 
f 22/29/6 27/34/6 21/27/6 
f 30/124/40 74/125/40 75/126/40 76/127/40 
f 19/25/3 20/26/3 77/128/3 78/129/3 
f 79/130/5 80/131/5 81/132/5 82/133/5 
f 79/130/5 82/133/5 83/134/5 
f 75/126/41 74/135/41 19/136/41 84/137/41 
f 84/137/9 19/136/9 78/138/9 85/139/9 
s 1
f 79/130/36 76/127/42 75/126/36 84/137/36 
f 79/130/36 84/137/36 80/131/36 
s off
f 80/131/43 84/137/43 85/139/43 86/140/43 
f 80/131/44 86/140/44 81/132/44 
f 86/140/12 85/139/12 78/141/12 77/142/12 
f 86/140/12 77/142/12 82/133/12 81/132/12 
f 82/143/12 77/144/12 87/145/12 88/146/12 
s 2
f 87/147/45 76/127/46 79/130/47 88/148/48 
# 72 polygons - 16 triangles

