# 3ds Max Wavefront OBJ Exporter v0.97b - (c)2007 guruware
# File Created: 15.10.2017 22:00:06

mtllib player1.mtl

#
# object Box071
#

v  175.6952 20.1909 -274.6631
v  197.1898 20.1909 -274.6631
v  197.1898 20.1909 -295.6631
v  175.6952 20.1909 -295.6631
v  175.6952 -0.8091 -274.6631
v  197.1898 -0.8091 -274.6631
v  197.1898 -0.8091 -295.6631
v  175.6952 -0.8091 -295.6631
v  183.6952 -0.8091 -287.6631
v  183.6952 -0.8091 -282.6631
v  189.1898 -0.8091 -287.6631
v  189.1898 -0.8091 -282.6631
v  183.6952 -1.1218 -287.6631
v  183.6952 -1.1218 -282.6631
v  189.1898 -1.1218 -287.6631
v  189.1898 -1.1218 -282.6631
v  175.5957 -2.1127 -287.6631
v  172.1777 -6.7316 -287.6631
v  172.1777 -6.7316 -282.6631
v  175.5957 -2.1127 -282.6631
v  197.0034 -2.1127 -282.6631
v  200.4670 -6.7316 -282.6631
v  200.4670 -6.7316 -287.6631
v  197.0034 -2.1127 -287.6631
v  183.6952 -1.3458 -282.6631
v  183.6952 -1.3458 -287.6631
v  176.4593 -1.3458 -287.6631
v  176.4593 -1.3458 -282.6631
v  176.4593 -20.5913 -289.3254
v  176.4593 -3.5096 -289.3254
v  196.1855 -3.5096 -289.3254
v  196.1855 -20.5913 -289.3254
v  189.1898 -1.3458 -287.6631
v  189.1898 -1.3458 -282.6631
v  196.1855 -1.3458 -282.6631
v  196.1855 -1.3458 -287.6631
v  176.4593 -1.3458 -281.0007
v  176.4593 -20.5913 -281.0007
v  196.1855 -20.5913 -281.0007
v  196.1855 -1.3458 -281.0007
v  196.1855 -2.1127 -287.6631
v  196.1855 -6.7316 -287.6631
v  196.1855 -6.7316 -282.6631
v  196.1855 -2.1127 -282.6631
v  176.4593 -2.1127 -282.6631
v  176.4593 -6.7316 -282.6631
v  176.4593 -6.7316 -287.6631
v  176.4593 -2.1127 -287.6631
v  184.3662 -24.3210 -289.3254
v  188.2786 -24.3210 -289.3254
v  188.2786 -24.3210 -281.0007
v  184.3662 -24.3210 -281.0007
v  196.1855 -24.3210 -289.3254
v  176.4593 -24.3210 -289.3254
v  196.1855 -24.3210 -281.0007
v  176.4593 -24.3210 -281.0007
v  184.3662 -34.5295 -281.0007
v  176.4593 -34.5295 -281.0007
v  176.4593 -34.5295 -289.3254
v  184.3662 -34.5295 -289.3254
v  188.2786 -34.5295 -289.3254
v  196.1855 -34.5295 -289.3254
v  196.1855 -34.5295 -281.0007
v  188.2786 -34.5295 -281.0007
v  196.1855 -32.0795 -281.0007
v  196.1855 -32.0795 -289.3254
v  189.2786 -34.1888 -277.6803
v  189.2786 -34.6389 -277.6803
v  195.1855 -34.6389 -277.6803
v  195.1855 -34.1888 -277.6803
v  188.2786 -32.0795 -289.3254
v  188.2786 -32.0795 -281.0007
v  184.3662 -32.0795 -289.3254
v  176.4593 -32.0795 -289.3254
v  184.3662 -32.0795 -281.0007
v  177.4593 -34.1888 -277.6803
v  177.4593 -34.6389 -277.6803
v  183.3662 -34.6389 -277.6803
v  183.3662 -34.1888 -277.6803
v  176.4593 -32.0795 -281.0007
v  176.1274 -24.0479 -287.3311
v  176.1274 -24.0479 -282.9950
v  172.5096 -24.0479 -282.9950
v  172.5096 -24.0479 -287.3311
v  196.5174 -24.0479 -282.9950
v  196.5174 -24.0479 -287.3311
v  200.1351 -24.0479 -287.3311
v  200.1351 -24.0479 -282.9950
v  176.4593 -20.5247 -282.6631
v  176.4593 -20.5247 -287.6631
v  172.1777 -20.5247 -282.6631
v  172.1777 -20.5247 -287.6631
v  196.1855 -20.5247 -287.6631
v  196.1855 -20.5247 -282.6631
v  200.4670 -20.5247 -287.6631
v  200.4670 -20.5247 -282.6631
v  176.1274 -20.5247 -282.9950
v  176.1274 -20.5247 -287.3311
v  172.5096 -20.5247 -282.9950
v  172.5096 -20.5247 -287.3311
v  196.5174 -20.5247 -287.3311
v  196.5174 -20.5247 -282.9950
v  200.1351 -20.5247 -287.3311
v  200.1351 -20.5247 -282.9950
v  188.2698 8.2463 -274.0373
v  188.2698 13.0434 -274.0373
v  193.3046 13.0434 -274.0373
v  193.3046 8.2463 -274.0373
v  188.2698 8.2463 -273.2009
v  193.3046 8.2463 -273.2009
v  193.3046 13.0434 -273.2009
v  188.2698 13.0434 -273.2009
v  187.9590 7.9355 -274.0373
v  193.6154 7.9355 -274.0373
v  193.6154 7.9355 -273.2009
v  187.9590 7.9355 -273.2009
v  197.8409 9.7418 -274.0373
v  197.8409 11.5480 -274.0373
v  197.8409 11.5480 -273.2009
v  197.8409 9.7418 -273.2009
v  193.6154 13.3542 -274.0373
v  187.9590 13.3542 -274.0373
v  187.9590 13.3542 -273.2009
v  193.6154 13.3542 -273.2009
v  187.9590 10.4391 -274.0373
v  187.9590 10.8506 -274.0373
v  193.6154 11.5480 -274.0373
v  193.6154 9.7418 -274.0373
v  193.6154 9.7418 -273.2009
v  193.6154 11.5480 -273.2009
v  187.9590 10.8506 -273.2009
v  187.9590 10.4391 -273.2009
v  197.2747 11.5480 -274.0373
v  197.2747 9.7418 -274.0373
v  197.2747 11.5480 -273.2009
v  197.2747 9.7418 -273.2009
v  197.2747 9.7418 -285.6306
v  197.2747 11.5480 -285.6306
v  197.8409 11.5480 -285.6306
v  197.8409 9.7418 -285.6306
v  185.0395 10.4391 -274.0373
v  185.0395 10.8506 -274.0373
v  185.0395 10.4391 -273.2009
v  185.0395 10.8506 -273.2009
v  184.3808 8.2463 -274.0373
v  179.3460 8.2463 -274.0373
v  179.3460 13.0434 -274.0373
v  184.3808 13.0434 -274.0373
v  184.3808 8.2463 -273.2009
v  184.3808 13.0434 -273.2009
v  179.3460 13.0434 -273.2009
v  179.3460 8.2463 -273.2009
v  184.6916 7.9355 -274.0373
v  184.6916 7.9355 -273.2009
v  179.0352 7.9355 -273.2009
v  179.0352 7.9355 -274.0373
v  175.1912 9.7418 -274.0373
v  175.1912 9.7418 -273.2009
v  175.1912 11.5480 -273.2009
v  175.1912 11.5480 -274.0373
v  179.0352 13.3542 -274.0373
v  179.0352 13.3542 -273.2009
v  184.6916 13.3542 -273.2009
v  184.6916 13.3542 -274.0373
v  184.6916 10.8506 -274.0373
v  184.6916 10.4391 -274.0373
v  179.0352 9.7418 -274.0373
v  179.0352 11.5480 -274.0373
v  179.0352 11.5480 -273.2009
v  179.0352 9.7418 -273.2009
v  184.6916 10.4391 -273.2009
v  184.6916 10.8506 -273.2009
v  175.7574 9.7418 -274.0373
v  175.7574 11.5480 -274.0373
v  175.7574 11.5480 -273.2009
v  175.7574 9.7418 -273.2009
v  175.7574 9.7418 -285.6306
v  175.1912 9.7418 -285.6306
v  175.1912 11.5480 -285.6306
v  175.7574 11.5480 -285.6306
v  175.5605 33.1546 -274.2810
v  197.3246 33.1546 -274.2810
v  197.3246 33.1546 -296.0451
v  175.5605 33.1546 -296.0451
v  170.0211 15.7293 -268.7417
v  202.8639 15.7293 -268.7417
v  202.8639 16.0892 -268.7417
v  170.0211 16.0892 -268.7417
v  202.8639 15.7293 -301.5844
v  202.8639 16.0892 -301.5844
v  170.0211 15.7293 -301.5844
v  170.0211 16.0892 -301.5844
v  175.5605 15.5129 -274.2810
v  197.3246 15.5129 -274.2810
v  197.3246 15.5129 -296.0451
v  175.5605 15.5129 -296.0451
v  171.0494 15.1530 -269.7700
v  171.0494 15.1530 -300.5562
v  201.8356 15.1530 -300.5562
v  201.8356 15.1530 -269.7700
v  171.0494 15.5129 -300.5562
v  171.0494 15.5129 -269.7700
v  201.8356 15.5129 -269.7700
v  201.8356 15.5129 -300.5562
# 204 vertices

vn 0.0000 1.0000 -0.0000
vn 0.0000 0.0000 1.0000
vn 1.0000 0.0000 -0.0000
vn 0.0000 0.0000 -1.0000
vn -1.0000 0.0000 -0.0000
vn 0.0000 -1.0000 -0.0000
vn -0.8038 0.5948 0.0000
vn 0.8000 0.5999 -0.0000
vn 0.0000 0.6092 -0.7930
vn -1.0000 0.0000 0.0000
vn 0.0000 1.0000 0.0000
vn 0.0000 -0.8884 -0.4590
vn 0.9575 0.0000 0.2884
vn 0.0000 0.8441 0.5362
vn -0.9575 0.0000 0.2884
vn 0.0000 -0.9995 -0.0329
vn -0.0000 0.0000 -1.0000
vn 1.0000 0.0000 0.0000
vn 1.0000 -0.0000 0.0000
vn 0.0000 -0.0000 1.0000
vn -0.4889 -0.8723 -0.0000
vn 0.0000 -0.8723 0.4889
vn 0.4889 -0.8723 -0.0000
vn 0.0000 -0.8723 -0.4889
vn 0.0000 0.8723 -0.4889
vn 0.4889 0.8723 -0.0000
vn 0.0000 0.8723 0.4889
vn -0.4889 0.8723 -0.0000
# 28 vertex normals

vt 0.0000 0.0000 0.0000
vt 1.0000 0.0000 0.0000
vt 1.0000 1.0000 0.0000
vt 0.0000 1.0000 0.0000
vt 0.5992 1.0000 0.0000
vt 0.4008 1.0000 0.0000
vt 0.4008 0.0000 0.0000
vt 0.5992 0.0000 0.0000
vt 0.3333 0.0000 0.0000
vt 0.6667 0.0000 0.0000
vt 0.6667 1.0000 0.0000
vt 0.3333 1.0000 0.0000
vt 1.0000 0.4620 0.0000
vt 1.0000 0.5380 0.0000
vt 0.0000 0.6667 0.0000
vt 0.0000 0.3333 0.0000
vt 1.0000 0.3333 0.0000
vt 1.0000 0.6667 0.0000
vt 0.0000 0.5380 0.0000
vt 0.0000 0.4620 0.0000
vt 0.5380 0.0000 0.0000
vt 0.5380 1.0000 0.0000
vt 0.4620 1.0000 0.0000
vt 0.4620 0.0000 0.0000
vt 0.5380 -0.0000 0.0000
vt 0.4620 -0.0000 0.0000
vt 1.0920 -0.0920 0.0000
vt 1.0920 1.0920 0.0000
vt -0.0920 1.0920 0.0000
vt -0.0920 -0.0920 0.0000
vt 0.8371 1.0000 0.0000
vt -0.0000 1.0000 0.0000
vt 0.8881 1.0000 0.0000
vt -0.1119 1.0000 0.0000
vt 0.1301 1.0000 0.0000
vt 0.0511 1.0000 0.0000
vt 0.7580 1.0000 0.0000
# 37 texture coords

g Box071
usemtl 01___Default
s 4
f 1/1/1 2/2/1 3/3/1 4/4/1 
s 8
f 5/1/2 6/2/2 2/3/2 1/4/2 
s 16
f 6/1/3 7/2/3 3/3/3 2/4/3 
s 32
f 7/1/4 8/2/4 4/3/4 3/4/4 
s 64
f 8/1/5 5/2/5 1/3/5 4/4/5 
s off
f 5/2/6 8/3/6 9/3/6 10/2/6 
f 8/3/6 7/4/6 11/4/6 9/3/6 
f 7/4/6 6/1/6 12/1/6 11/4/6 
f 6/1/6 5/2/6 10/2/6 12/1/6 
f 10/2/5 9/3/5 13/3/5 14/2/5 
f 9/3/4 11/4/4 15/4/4 13/3/4 
f 11/4/3 12/1/3 16/1/3 15/4/3 
f 12/1/2 10/2/2 14/2/2 16/1/2 
f 17/3/7 18/3/7 19/2/7 20/2/7 
f 21/1/8 22/1/8 23/4/8 24/4/8 
f 25/2/1 26/3/1 27/3/1 28/2/1 
f 29/3/4 30/3/4 31/4/4 32/4/4 
f 33/4/1 34/1/1 35/1/1 36/4/1 
f 37/2/2 38/2/2 39/1/2 40/1/2 
f 27/3/9 26/3/9 33/4/9 36/4/9 31/4/9 30/3/9 
f 36/4/3 41/4/3 42/4/3 43/1/3 44/1/3 35/1/3 40/1/3 39/1/3 32/4/3 31/4/3 
f 35/1/1 34/1/1 25/2/1 28/2/1 37/2/1 40/1/1 
f 28/2/5 45/2/5 46/2/5 47/3/5 48/3/5 27/3/5 30/3/5 29/3/5 38/2/5 37/2/5 
s 2
f 49/5/6 50/6/6 51/7/6 52/8/6 
s off
f 29/3/4 32/4/4 53/4/4 50/6/4 49/5/4 54/3/4 
f 32/4/3 39/1/3 55/1/3 53/4/3 
f 39/1/2 38/2/2 56/2/2 52/8/2 51/7/2 55/1/2 
f 38/2/5 29/3/5 54/3/5 56/2/5 
s 2
f 57/8/6 58/2/6 59/3/6 60/5/6 
f 61/6/6 62/4/6 63/1/6 64/7/6 
s off
f 65/1/3 63/1/3 62/4/3 66/4/3 
f 67/7/2 68/7/2 69/1/2 70/1/2 
f 71/6/10 61/6/10 64/7/10 72/7/10 
f 66/4/4 62/4/4 61/6/4 71/6/4 
f 73/5/4 60/5/4 59/3/4 74/3/4 
f 75/8/3 57/8/3 60/5/3 73/5/3 
f 76/2/2 77/2/2 78/8/2 79/8/2 
f 74/3/5 59/3/5 58/2/5 80/2/5 
f 45/2/5 28/2/5 27/3/5 48/3/5 
f 41/4/3 36/4/3 35/1/3 44/1/3 
f 46/2/2 45/2/2 20/2/2 19/2/2 
f 45/2/11 48/3/11 17/3/11 20/2/11 
f 48/3/4 47/3/4 18/3/4 17/3/4 
f 81/3/6 82/2/6 83/2/6 84/3/6 
f 42/4/4 41/4/4 24/4/4 23/4/4 
f 41/4/1 44/1/1 21/1/1 24/4/1 
f 44/1/2 43/1/2 22/1/2 21/1/2 
f 85/1/6 86/4/6 87/4/6 88/1/6 
f 47/3/3 46/2/3 89/2/3 90/3/3 
f 46/2/2 19/2/2 91/2/2 89/2/2 
f 19/2/5 18/3/5 92/3/5 91/2/5 
f 18/3/4 47/3/4 90/3/4 92/3/4 
f 43/1/5 42/4/5 93/4/5 94/1/5 
f 42/4/4 23/4/4 95/4/4 93/4/4 
f 23/4/3 22/1/3 96/1/3 95/4/3 
f 22/1/2 43/1/2 94/1/2 96/1/2 
f 63/1/12 63/1/12 62/4/12 62/4/12 
f 66/4/3 53/4/3 55/1/3 65/1/3 
f 64/7/12 64/7/12 63/1/12 63/1/12 
f 65/1/2 55/1/2 51/7/2 72/7/2 
f 61/6/12 61/6/12 64/7/12 64/7/12 
f 72/7/10 51/7/10 50/6/10 71/6/10 
f 62/4/12 62/4/12 61/6/12 61/6/12 
f 71/6/4 50/6/4 53/4/4 66/4/4 
f 60/5/12 60/5/12 59/3/12 59/3/12 
f 74/3/4 54/3/4 49/5/4 73/5/4 
f 57/8/12 57/8/12 60/5/12 60/5/12 
f 73/5/3 49/5/3 52/8/3 75/8/3 
f 58/2/12 58/2/12 57/8/12 57/8/12 
f 75/8/2 52/8/2 56/2/2 80/2/2 
f 59/3/12 59/3/12 58/2/12 58/2/12 
f 80/2/5 56/2/5 54/3/5 74/3/5 
f 63/1/13 65/1/13 70/1/13 69/1/13 
f 65/1/14 72/7/14 67/7/14 70/1/14 
f 72/7/15 64/7/15 68/7/15 67/7/15 
f 64/7/16 63/1/16 69/1/16 68/7/16 
f 57/8/13 75/8/13 79/8/13 78/8/13 
f 75/8/14 80/2/14 76/2/14 79/8/14 
f 80/2/15 58/2/15 77/2/15 76/2/15 
f 58/2/16 57/8/16 78/8/16 77/2/16 
f 13/3/5 26/3/5 25/2/5 14/2/5 
f 15/4/4 33/4/4 26/3/4 13/3/4 
f 16/1/3 34/1/3 33/4/3 15/4/3 
f 14/2/2 25/2/2 34/1/2 16/1/2 
f 90/3/6 89/2/6 97/2/6 98/3/6 
f 89/2/6 91/2/6 99/2/6 97/2/6 
f 91/2/6 92/3/6 100/3/6 99/2/6 
f 92/3/6 90/3/6 98/3/6 100/3/6 
f 94/1/6 93/4/6 101/4/6 102/1/6 
f 93/4/6 95/4/6 103/4/6 101/4/6 
f 95/4/6 96/1/6 104/1/6 103/4/6 
f 96/1/6 94/1/6 102/1/6 104/1/6 
f 98/3/3 97/2/3 82/2/3 81/3/3 
f 97/2/2 99/2/2 83/2/2 82/2/2 
f 99/2/5 100/3/5 84/3/5 83/2/5 
f 100/3/4 98/3/4 81/3/4 84/3/4 
f 102/1/5 101/4/5 86/4/5 85/1/5 
f 101/4/4 103/4/4 87/4/4 86/4/4 
f 103/4/3 104/1/3 88/1/3 87/4/3 
f 104/1/2 102/1/2 85/1/2 88/1/2 
usemtl 02___Default
s 2
f 105/2/17 106/3/17 107/4/17 108/1/17 
s 4
f 109/1/2 110/2/2 111/3/2 112/4/2 
usemtl 01___Default
s 8
f 113/1/6 114/2/6 115/3/6 116/4/6 
s 16
f 117/9/3 118/10/3 119/11/3 120/12/3 
s 32
f 121/1/1 122/2/1 123/3/1 124/4/1 
s off
f 113/2/4 125/13/4 126/14/4 122/3/4 106/3/4 105/2/4 
f 122/3/17 121/4/17 107/4/17 106/3/17 
f 121/4/17 127/15/17 128/16/17 114/1/17 108/1/17 107/4/17 
f 114/1/17 113/2/17 105/2/17 108/1/17 
f 116/1/2 115/2/2 110/2/2 109/1/2 
f 115/2/2 129/17/2 130/18/2 124/3/2 111/3/2 110/2/2 
f 124/3/2 123/4/2 112/4/2 111/3/2 
f 123/4/2 131/19/2 132/20/2 116/1/2 109/1/2 112/4/2 
s 16
f 127/10/18 121/2/18 124/3/18 130/11/18 
f 129/12/18 115/4/19 114/1/19 128/9/19 
s off
f 128/9/17 127/10/17 133/10/17 134/9/17 
f 127/10/1 130/11/1 135/11/1 133/10/1 
f 130/11/2 129/12/2 136/12/2 135/11/2 
f 129/12/6 128/9/6 134/9/6 136/12/6 
f 137/9/4 138/10/4 139/10/4 140/9/4 
f 133/10/1 135/11/1 119/11/1 118/10/1 
f 135/11/20 136/12/20 120/12/20 119/11/20 
f 136/12/6 134/9/6 117/9/6 120/12/6 
f 134/9/5 133/10/5 138/10/5 137/9/5 
f 133/10/1 118/10/1 139/10/1 138/10/1 
f 118/10/18 117/9/18 140/9/18 139/10/18 
f 117/9/6 134/9/6 137/9/6 140/9/6 
s 64
f 125/21/5 113/2/5 116/3/5 132/22/5 
f 131/23/5 123/4/5 122/1/5 126/24/5 
s 2
f 126/24/4 125/21/4 141/21/4 142/24/4 
s 1
f 125/21/6 132/22/6 143/22/6 141/25/6 
s 2
f 132/22/2 131/23/2 144/23/2 143/22/2 
s 1
f 131/23/1 126/24/1 142/26/1 144/23/1 
usemtl 02___Default
s 2
f 145/2/17 146/1/17 147/4/17 148/3/17 
s 4
f 149/1/2 150/4/2 151/3/2 152/2/2 
usemtl 01___Default
s 8
f 153/1/6 154/4/6 155/3/6 156/2/6 
s 16
f 157/9/5 158/12/5 159/11/5 160/10/5 
s 32
f 161/1/1 162/4/1 163/3/1 164/2/1 
s off
f 153/2/17 145/2/17 148/3/17 164/3/17 165/14/17 166/13/17 
f 164/3/17 148/3/17 147/4/17 161/4/17 
f 161/4/4 147/4/4 146/1/4 156/1/4 167/16/4 168/15/4 
f 156/1/17 146/1/17 145/2/17 153/2/17 
f 154/1/20 149/1/20 152/2/20 155/2/20 
f 155/2/2 152/2/2 151/3/2 162/3/2 169/18/2 170/17/2 
f 162/3/2 151/3/2 150/4/2 163/4/2 
f 163/4/20 150/4/20 149/1/20 154/1/20 171/20/20 172/19/20 
s 16
f 168/10/5 169/11/5 162/3/5 161/2/5 
f 170/12/5 167/9/5 156/1/5 155/4/5 
s off
f 167/9/17 173/9/17 174/10/17 168/10/17 
f 168/10/1 174/10/1 175/11/1 169/11/1 
f 169/11/2 175/11/2 176/12/2 170/12/2 
f 170/12/6 176/12/6 173/9/6 167/9/6 
f 177/9/4 178/9/4 179/10/4 180/10/4 
f 174/10/1 160/10/1 159/11/1 175/11/1 
f 175/11/2 159/11/2 158/12/2 176/12/2 
f 176/12/6 158/12/6 157/9/6 173/9/6 
f 173/9/18 177/9/18 180/10/18 174/10/18 
f 174/10/1 180/10/1 179/10/1 160/10/1 
f 160/10/5 179/10/5 178/9/5 157/9/5 
f 157/9/6 178/9/6 177/9/6 173/9/6 
s 64
f 166/21/3 171/22/3 154/3/3 153/2/3 
f 172/23/3 165/24/3 164/1/3 163/4/3 
s off
f 165/24/4 142/24/4 141/21/4 166/21/4 
f 166/21/6 141/21/6 143/22/6 171/22/6 
f 171/22/2 143/22/2 144/23/2 172/23/2 
f 172/23/1 144/23/1 142/24/1 165/24/1 
s 4
f 181/1/1 182/2/1 183/3/1 184/4/1 
s 8
f 185/1/2 186/2/2 187/3/2 188/4/2 
s 16
f 186/1/3 189/2/3 190/3/3 187/4/3 
s 32
f 189/1/4 191/2/4 192/3/4 190/4/4 
s 64
f 191/1/5 185/2/5 188/3/5 192/4/5 
s off
f 193/1/2 194/2/2 182/2/2 181/1/2 
f 194/2/3 195/3/3 183/3/3 182/2/3 
f 195/3/4 196/4/4 184/4/4 183/3/4 
f 196/4/5 193/1/5 181/1/5 184/4/5 
s 2
f 197/27/6 198/28/6 199/29/6 200/30/6 
s off
f 193/31/1 196/32/1 201/4/1 202/3/1 203/33/1 204/34/1 201/32/1 196/35/1 195/36/1 194/37/1 
f 198/1/21 197/2/21 185/2/21 191/1/21 
f 197/1/22 200/2/22 186/2/22 185/1/22 
f 200/1/23 199/2/23 189/2/23 186/1/23 
f 199/1/24 198/2/24 191/2/24 189/1/24 
f 203/3/25 202/4/25 188/4/25 187/3/25 
f 202/3/26 201/4/26 192/4/26 188/3/26 
f 201/3/27 204/4/27 190/4/27 192/3/27 
f 204/3/28 203/4/28 187/4/28 190/3/28 
# 185 polygons

